<svg width="207" height="156" viewBox="0 0 207 156" fill="none" xmlns="http://www.w3.org/2000/svg">
<path opacity="0.3" d="M69.8629 27.4241C54.4051 32.2623 28.2455 40.2259 23.971 60.8722C20.7728 76.3284 22.2529 116.695 51.3985 126.557C90.6043 139.835 158.221 133.367 172.845 103.588C182.238 84.4731 184.748 45.9178 155.99 34.3838C136.507 26.5703 103.061 17.0648 69.8629 27.4241Z" fill="#E6E6E6"/>
<path d="M100.727 49.4004H97.9424V72.3442H100.727V49.4004Z" fill="#E6E6E6"/>
<path d="M148.256 45.4506L139.154 63.752L141.647 64.9915L150.749 46.6901L148.256 45.4506Z" fill="#E6E6E6"/>
<path d="M109.104 91.3761L107.337 93.5273L130.423 112.488L132.19 110.337L109.104 91.3761Z" fill="#E6E6E6"/>
<path d="M133.443 112.048C133.565 111.863 133.635 111.647 133.645 111.425C133.655 111.203 133.605 110.982 133.5 110.786L131.011 112.028C130.369 110.744 131.528 109.86 134.281 107.717C135.891 106.475 138.157 104.799 141.009 102.739C145.868 99.2364 150.841 95.7901 150.888 95.7539L152.476 98.041C145.149 103.133 134.395 110.843 133.443 112.048Z" fill="#E6E6E6"/>
<path d="M110.745 82.1806L109.767 79.5726L139.171 68.4992L173.331 66.7812L173.476 69.5651L139.745 71.2624L110.745 82.1806Z" fill="#E6E6E6"/>
<path d="M85.4339 94.2943L63.627 107.988L65.1077 110.346L86.9146 96.6518L85.4339 94.2943Z" fill="#E6E6E6"/>
<path d="M73.4674 64.4262L71.3818 66.2705L85.1297 81.8136L87.2152 79.9693L73.4674 64.4262Z" fill="#E6E6E6"/>
<path d="M36.0288 85.8086L34.6781 83.3714L61.0603 68.7534L32.6133 47.1964L34.2952 44.9766L66.1525 69.1156L36.0288 85.8086Z" fill="#E6E6E6"/>
<path d="M116.215 85.5084C116.216 82.4933 115.478 79.5238 114.066 76.86C112.653 74.1961 110.609 71.9192 108.113 70.2286C105.616 68.538 102.743 67.4852 99.7446 67.1626C96.7466 66.8399 93.7151 67.2572 90.9157 68.3778C88.1164 69.4984 85.6345 71.2883 83.6875 73.5905C81.7404 75.8928 80.3876 78.6373 79.7475 81.5837C79.1074 84.5301 79.1995 87.5884 80.0158 90.4909C80.8321 93.3934 82.3476 96.0516 84.4297 98.2325C87.0449 101.021 88.4882 104.707 88.461 108.53V109.161H106.713V108.695C106.749 104.818 108.291 101.107 111.014 98.3464C114.357 94.9102 116.224 90.3026 116.215 85.5084Z" fill="#FFD200"/>
<path d="M92.8188 109.207C92.6698 109.208 92.5254 109.156 92.4102 109.062C92.295 108.968 92.2163 108.836 92.1874 108.69L88.3321 85.3581C88.3181 85.2749 88.3207 85.1897 88.3397 85.1075C88.3587 85.0253 88.3937 84.9476 88.4427 84.8789C88.4917 84.8101 88.5538 84.7518 88.6254 84.707C88.697 84.6623 88.7767 84.6321 88.8599 84.6182C88.9432 84.6043 89.0283 84.6069 89.1106 84.6258C89.1928 84.6448 89.2705 84.6798 89.3392 84.7288C89.408 84.7778 89.4663 84.8399 89.5111 84.9115C89.5558 84.9831 89.586 85.0627 89.5999 85.146L93.4553 108.478C93.4826 108.644 93.4437 108.815 93.347 108.953C93.2504 109.091 93.1035 109.186 92.9378 109.218L92.8188 109.207Z" fill="white"/>
<path d="M102.465 109.207H102.356C102.19 109.176 102.044 109.081 101.947 108.942C101.85 108.804 101.811 108.634 101.839 108.467L105.694 85.1352C105.722 84.9671 105.816 84.8171 105.955 84.7181C106.093 84.6191 106.266 84.5793 106.434 84.6075C106.602 84.6356 106.752 84.7293 106.851 84.8681C106.95 85.0069 106.99 85.1793 106.962 85.3474L103.106 108.679C103.079 108.829 103 108.964 102.883 109.061C102.765 109.158 102.617 109.209 102.465 109.207Z" fill="white"/>
<path d="M108.215 106.33H87.3232V122.821H108.215V106.33Z" fill="#24285B"/>
<path d="M99.6658 90.0726C98.8533 90.0726 98.0667 89.5862 97.3215 88.6186C97.0214 88.2253 96.7264 88.0442 96.4521 88.0649C95.8311 88.1218 95.1273 89.1257 94.8996 89.6173C94.8221 89.7689 94.6875 89.8835 94.5254 89.936C94.3633 89.9884 94.1871 89.9742 94.0354 89.8967C93.8838 89.8192 93.7691 89.6845 93.7167 89.5225C93.6643 89.3604 93.6784 89.1842 93.756 89.0326C93.8646 88.8204 94.8634 86.9317 96.3435 86.7972C96.7399 86.7759 97.1349 86.8605 97.4878 87.0424C97.8406 87.2243 98.1387 87.4968 98.3514 87.8321C98.7084 88.2926 99.2415 88.8359 99.7538 88.779C100.349 88.7169 100.872 87.8993 101.006 87.6199C101.083 87.4728 101.214 87.3612 101.371 87.3084C101.528 87.2555 101.7 87.2657 101.85 87.3366C102 87.4076 102.116 87.5338 102.175 87.6889C102.234 87.844 102.23 88.0158 102.165 88.1684C102.083 88.3443 101.306 89.907 99.8935 90.0571L99.6658 90.0726Z" fill="white"/>
<path opacity="0.21" d="M109.484 77.6606C110.467 75.3926 108.911 72.5338 106.009 71.2754C103.106 70.017 99.9555 70.8354 98.9721 73.1034C97.9886 75.3714 99.5446 78.2301 102.447 79.4886C105.35 80.747 108.501 79.9286 109.484 77.6606Z" fill="white"/>
<path d="M90.7588 122.821H104.788C104.788 123.666 104.622 124.502 104.299 125.283C103.975 126.063 103.501 126.772 102.904 127.369C102.307 127.967 101.598 128.44 100.817 128.764C100.037 129.087 99.2004 129.253 98.3557 129.253H97.1913C95.4853 129.253 93.8492 128.576 92.6428 127.369C91.4365 126.163 90.7588 124.527 90.7588 122.821Z" fill="#24285B"/>
<path d="M71.8544 54.332H55.3617C53.161 54.332 51.377 56.1159 51.377 58.3164V74.8076C51.377 77.0081 53.161 78.7919 55.3617 78.7919H71.8544C74.0551 78.7919 75.8392 77.0081 75.8392 74.8076V58.3164C75.8392 56.1159 74.0551 54.332 71.8544 54.332Z" fill="#282F66"/>
<path d="M147.705 58.8955H131.212C129.012 58.8955 127.228 60.6794 127.228 62.8799V79.371C127.228 81.5715 129.012 83.3554 131.212 83.3554H147.705C149.906 83.3554 151.69 81.5715 151.69 79.371V62.8799C151.69 60.6794 149.906 58.8955 147.705 58.8955Z" fill="#282F66"/>
<path opacity="0.09" d="M147.705 58.8955H131.212C129.012 58.8955 127.228 60.6794 127.228 62.8799V79.371C127.228 81.5715 129.012 83.3554 131.212 83.3554H147.705C149.906 83.3554 151.69 81.5715 151.69 79.371V62.8799C151.69 60.6794 149.906 58.8955 147.705 58.8955Z" fill="black"/>
<path d="M68.4394 95.4795H51.9467C49.7459 95.4795 47.9619 97.2634 47.9619 99.4639V115.955C47.9619 118.156 49.7459 119.939 51.9467 119.939H68.4394C70.6401 119.939 72.4241 118.156 72.4241 115.955V99.4639C72.4241 97.2634 70.6401 95.4795 68.4394 95.4795Z" fill="#282F66"/>
<path opacity="0.6" d="M68.4394 95.4795H51.9467C49.7459 95.4795 47.9619 97.2634 47.9619 99.4639V115.955C47.9619 118.156 49.7459 119.939 51.9467 119.939H68.4394C70.6401 119.939 72.4241 118.156 72.4241 115.955V99.4639C72.4241 97.2634 70.6401 95.4795 68.4394 95.4795Z" fill="white"/>
<path d="M138.312 102.424H126.197C124.582 102.424 123.273 103.733 123.273 105.347V117.461C123.273 119.076 124.582 120.385 126.197 120.385H138.312C139.927 120.385 141.236 119.076 141.236 117.461V105.347C141.236 103.733 139.927 102.424 138.312 102.424Z" fill="#282F66"/>
<path d="M107.412 34.1094H91.261C89.1089 34.1094 87.3643 35.8539 87.3643 38.0058V54.1554C87.3643 56.3074 89.1089 58.0518 91.261 58.0518H107.412C109.564 58.0518 111.309 56.3074 111.309 54.1554V38.0058C111.309 35.8539 109.564 34.1094 107.412 34.1094Z" fill="#282F66"/>
<path opacity="0.46" d="M107.412 34.1094H91.261C89.1089 34.1094 87.3643 35.8539 87.3643 38.0058V54.1554C87.3643 56.3074 89.1089 58.0518 91.261 58.0518H107.412C109.564 58.0518 111.309 56.3074 111.309 54.1554V38.0058C111.309 35.8539 109.564 34.1094 107.412 34.1094Z" fill="white"/>
<path d="M38.3001 37.9756H28.1933C26.8471 37.9756 25.7559 39.0668 25.7559 40.4128V50.5186C25.7559 51.8646 26.8471 52.9558 28.1933 52.9558H38.3001C39.6462 52.9558 40.7375 51.8646 40.7375 50.5186V40.4128C40.7375 39.0668 39.6462 37.9756 38.3001 37.9756Z" fill="#282F66"/>
<path opacity="0.46" d="M38.3001 37.9756H28.1933C26.8471 37.9756 25.7559 39.0668 25.7559 40.4128V50.5186C25.7559 51.8646 26.8471 52.9558 28.1933 52.9558H38.3001C39.6462 52.9558 40.7375 51.8646 40.7375 50.5186V40.4128C40.7375 39.0668 39.6462 37.9756 38.3001 37.9756Z" fill="white"/>
<path d="M38.7558 79.5371H31.9455C31.0366 79.5371 30.2998 80.2738 30.2998 81.1826V87.9923C30.2998 88.901 31.0366 89.6378 31.9455 89.6378H38.7558C39.6646 89.6378 40.4014 88.901 40.4014 87.9923V81.1826C40.4014 80.2738 39.6646 79.5371 38.7558 79.5371Z" fill="#282F66"/>
<path opacity="0.09" d="M38.7558 79.5371H31.9455C31.0366 79.5371 30.2998 80.2738 30.2998 81.1826V87.9923C30.2998 88.901 31.0366 89.6378 31.9455 89.6378H38.7558C39.6646 89.6378 40.4014 88.901 40.4014 87.9923V81.1826C40.4014 80.2738 39.6646 79.5371 38.7558 79.5371Z" fill="black"/>
<path d="M153.977 90.4287H147.167C146.258 90.4287 145.521 91.1654 145.521 92.0742V98.8839C145.521 99.7926 146.258 100.529 147.167 100.529H153.977C154.886 100.529 155.623 99.7926 155.623 98.8839V92.0742C155.623 91.1654 154.886 90.4287 153.977 90.4287Z" fill="#282F66"/>
<path opacity="0.6" d="M153.977 90.4287H147.167C146.258 90.4287 145.521 91.1654 145.521 92.0742V98.8839C145.521 99.7926 146.258 100.529 147.167 100.529H153.977C154.886 100.529 155.623 99.7926 155.623 98.8839V92.0742C155.623 91.1654 154.886 90.4287 153.977 90.4287Z" fill="white"/>
<path d="M151.183 41.0332H144.372C143.463 41.0332 142.727 41.7699 142.727 42.6787V49.4884C142.727 50.3971 143.463 51.1338 144.372 51.1338H151.183C152.091 51.1338 152.828 50.3971 152.828 49.4884V42.6787C152.828 41.7699 152.091 41.0332 151.183 41.0332Z" fill="#282F66"/>
<path opacity="0.6" d="M151.183 41.0332H144.372C143.463 41.0332 142.727 41.7699 142.727 42.6787V49.4884C142.727 50.3971 143.463 51.1338 144.372 51.1338H151.183C152.091 51.1338 152.828 50.3971 152.828 49.4884V42.6787C152.828 41.7699 152.091 41.0332 151.183 41.0332Z" fill="white"/>
<path d="M178.434 58.4453H166.806C165.254 58.4453 163.996 59.7033 163.996 61.2551V72.8822C163.996 74.434 165.254 75.692 166.806 75.692H178.434C179.986 75.692 181.244 74.434 181.244 72.8822V61.2551C181.244 59.7033 179.986 58.4453 178.434 58.4453Z" fill="#282F66"/>
<path d="M77.8271 34.4102H66.1523V46.0838H77.8271V34.4102Z" fill="#E6E6E6"/>
<path d="M132.19 43.2793H123.501V49.7319H132.19V43.2793Z" fill="#E6E6E6"/>
</svg>
