<svg width="207" height="156" viewBox="0 0 207 156" fill="none" xmlns="http://www.w3.org/2000/svg">
<path opacity="0.3" d="M72.8847 22.0322C51.7189 27.2585 34.9882 43.7651 30.0823 65.022C26.4339 80.8302 29.6372 97.1299 54.1926 103.055C107.283 115.872 164.627 111.644 171.494 86.0098C178.362 60.3753 165.398 21.6234 135.067 18.9016C117.757 17.3544 92.027 17.3027 72.8847 22.0322Z" fill="#E6E6E6"/>
<path d="M98.7291 90.8018C98.7291 90.8018 94.8168 92.7836 96.3124 95.0759C97.808 97.3682 101.068 92.9388 101.068 92.9388L98.7291 90.8018Z" fill="#F4A28C"/>
<path d="M89.7862 51.6098C89.677 51.2141 89.6741 50.7967 89.7778 50.3995C89.8815 50.0024 90.0881 49.6396 90.3768 49.3478C90.6655 49.056 91.026 48.8455 91.4221 48.7375C91.8181 48.6295 92.2356 48.6279 92.6325 48.7328C100.061 50.7627 106.587 55.2407 111.154 61.4414C111.966 62.5435 112.743 63.6198 113.472 64.6599C115.899 68.1134 116.884 72.3766 116.218 76.5446C115.553 80.7125 113.289 84.4569 109.907 86.9827L101.477 93.2905L98.1439 90.2427L104.908 83.7797C105.775 82.9511 106.464 81.9549 106.934 80.8516C107.404 79.7484 107.645 78.5611 107.642 77.3618C107.639 76.1626 107.393 74.9765 106.917 73.8755C106.442 72.7745 105.748 71.7817 104.877 70.9573L91.5975 58.3987L89.7862 51.6098Z" fill="#282F66"/>
<path opacity="0.46" d="M89.7862 51.6098C89.677 51.2141 89.6741 50.7967 89.7778 50.3995C89.8815 50.0024 90.0881 49.6396 90.3768 49.3478C90.6655 49.056 91.026 48.8455 91.4221 48.7375C91.8181 48.6295 92.2356 48.6279 92.6325 48.7328C100.061 50.7627 106.587 55.2407 111.154 61.4414C111.966 62.5435 112.743 63.6198 113.472 64.6599C115.899 68.1134 116.884 72.3766 116.218 76.5446C115.553 80.7125 113.289 84.4569 109.907 86.9827L101.477 93.2905L98.1439 90.2427L104.908 83.7797C105.775 82.9511 106.464 81.9549 106.934 80.8516C107.404 79.7484 107.645 78.5611 107.642 77.3618C107.639 76.1626 107.393 74.9765 106.917 73.8755C106.442 72.7745 105.748 71.7817 104.877 70.9573L91.5975 58.3987L89.7862 51.6098Z" fill="white"/>
<path opacity="0.45" d="M106.827 138.765C146.231 138.765 178.175 135.697 178.175 131.914C178.175 128.13 146.231 125.062 106.827 125.062C67.423 125.062 35.4795 128.13 35.4795 131.914C35.4795 135.697 67.423 138.765 106.827 138.765Z" fill="#E6E6E6"/>
<path d="M81.9716 40.1797C82.6458 41.4871 83.1402 42.8795 83.4414 44.3193C83.4669 44.4921 83.4579 44.6682 83.4149 44.8374C83.3719 45.0066 83.2957 45.1657 83.1908 45.3052C83.0858 45.4448 82.9542 45.5622 82.8036 45.6505C82.6529 45.7389 82.4863 45.7965 82.3132 45.8199C81.7601 45.9303 81.1869 45.8792 80.662 45.6727C80.1372 45.4663 79.6828 45.1132 79.3531 44.6557L77.7437 42.8135C77.4594 42.4128 77.3066 41.9336 77.3066 41.4423C77.3066 40.951 77.4594 40.4718 77.7437 40.071C78.7166 38.5187 81.3041 38.7153 81.9716 40.1797Z" fill="#F4A28C"/>
<path d="M78.5568 42.1357L78.1738 50.7772L82.9504 50.6478L81.3099 44.4125L78.5568 42.1357Z" fill="#F4A28C"/>
<path d="M80.2387 43.3306C80.2387 43.3306 79.835 42.3992 79.1571 42.7614C78.4792 43.1236 79.0588 44.4741 80.0731 44.2051L80.2387 43.3306Z" fill="#F4A28C"/>
<path d="M82.6602 41.7012L83.7314 42.3583C83.7912 42.3967 83.8404 42.4496 83.8745 42.512C83.9086 42.5743 83.9265 42.6443 83.9265 42.7154C83.9265 42.7865 83.9086 42.8564 83.8745 42.9188C83.8404 42.9812 83.7912 43.034 83.7314 43.0724L82.8723 43.6313L82.6602 41.7012Z" fill="#F4A28C"/>
<path opacity="0.31" d="M81.6981 45.8405C81.0907 45.7594 80.5204 45.5022 80.0576 45.1006C80.0576 45.1006 80.306 46.6529 82.2104 48.019L81.6981 45.8405Z" fill="#CE8172"/>
<path d="M78.349 44.4637L76.4964 41.3176C76.4964 41.3176 74.7834 40.8001 75.5286 39.4393C76.2738 38.0784 77.3865 38.6941 77.8108 36.9244C77.8456 36.6067 77.9776 36.3074 78.1889 36.0675C78.4002 35.8276 78.6803 35.6588 78.9912 35.584C79.302 35.5093 79.6283 35.5323 79.9255 35.65C80.2228 35.7677 80.4764 35.9742 80.6519 36.2414C81.2781 37.1573 83.5033 36.169 83.4619 37.7938C83.4205 39.4186 81.3453 40.0809 80.7554 40.2672C78.1731 41.0744 81.3971 43.8997 78.349 44.4637Z" fill="#24285B"/>
<path d="M92.4156 127.406C92.4156 127.406 93.1194 129.357 94.8789 129.507C96.6384 129.657 97.1042 131.375 95.5206 131.825C93.9371 132.275 89.8281 130.237 89.8281 130.237L89.942 127.696L92.4156 127.406Z" fill="#282F66"/>
<path d="M68.5581 127.406C68.5581 127.406 67.8543 129.357 66.0948 129.507C64.3353 129.657 63.8695 131.375 65.4531 131.825C67.0366 132.275 71.1456 130.237 71.1456 130.237L71.0317 127.696L68.5581 127.406Z" fill="#282F66"/>
<path d="M89.5278 48.2466C81.6827 48.3919 73.9392 50.0487 66.7216 53.1262C65.615 53.5947 64.6162 54.2849 63.7867 55.1543C62.9572 56.0237 62.3146 57.0538 61.8986 58.1811C61.4825 59.3083 61.3019 60.5089 61.3677 61.7086C61.4336 62.9084 61.7445 64.0819 62.2815 65.1569L74.7015 89.9066L97.7095 88.5457C97.7095 88.5457 101.896 74.6366 101.058 58.9009C100.888 55.9783 99.5922 53.2353 97.442 51.2483C95.2918 49.2614 92.455 48.1855 89.5278 48.2466Z" fill="#282F66"/>
<path d="M74.6956 89.9009L67.8232 127.752H71.2594L79.8758 107.205C82.9281 99.9268 88.308 93.8668 95.1731 89.9734L97.7037 88.54L74.6956 89.9009Z" fill="#24285B"/>
<path d="M97.7035 88.5459L94.1535 127.758H89.584C89.584 127.758 90.65 98.2636 82.4062 91.9714L97.7035 88.5459Z" fill="#24285B"/>
<path opacity="0.08" d="M73.1741 54.9424C73.1741 54.9424 79.0477 58.7198 77.2003 70.3366C76.6601 73.7325 76.8788 77.2059 77.8406 80.5073C78.8025 83.8086 80.4837 86.856 82.7634 89.4305L74.6956 89.9066C74.6956 89.9066 69.5206 79.128 68.144 76.8409C66.7675 74.5538 73.1741 54.9424 73.1741 54.9424Z" fill="black"/>
<path d="M74.3644 58.4609C74.3903 53.1984 67.8128 50.7716 64.2938 54.6835C61.2235 58.0111 59.2664 62.2126 58.6945 66.7039C57.2921 78.2585 58.8342 103.484 58.8342 103.484H63.0156C63.0156 103.484 65.8412 78.2741 72.0098 66.7039C73.7279 63.4801 74.354 60.7377 74.3644 58.4609Z" fill="#282F66"/>
<path opacity="0.46" d="M74.3644 58.4609C74.3903 53.1984 67.8128 50.7716 64.2938 54.6835C61.2235 58.0111 59.2664 62.2126 58.6945 66.7039C57.2921 78.2585 58.8342 103.484 58.8342 103.484H63.0156C63.0156 103.484 65.8412 78.2741 72.0098 66.7039C73.7279 63.4801 74.354 60.7377 74.3644 58.4609Z" fill="white"/>
<path d="M57.3438 110.771V108.985C57.3438 108.338 57.6011 107.716 58.0592 107.258C58.5172 106.8 59.1385 106.543 59.7863 106.543H62.0996C62.7474 106.543 63.3687 106.8 63.8268 107.258C64.2848 107.716 64.5422 108.338 64.5422 108.985V110.9" stroke="#24285B" stroke-width="2.03" stroke-miterlimit="10"/>
<path d="M75.3276 115.272H47.0928V121.425H75.3276V115.272Z" fill="#FFD200"/>
<path opacity="0.08" d="M75.3276 115.272H47.0928V121.425H75.3276V115.272Z" fill="black"/>
<path d="M71.881 110.066L75.3276 115.272H47.0928L50.5445 110.066H71.881Z" fill="#FFD200"/>
<path d="M59.5595 103.484C59.5595 103.484 58.3071 107.65 59.9579 107.65C61.6088 107.65 63.5804 108.442 62.3333 103.484H59.5595Z" fill="#F4A28C"/>
<path d="M173.109 104.518L171.235 103.992L164.043 129.631L165.916 130.156L173.109 104.518Z" fill="#E6E6E6"/>
<path d="M174.014 105.512C173.866 105.511 173.718 105.492 173.574 105.455L170.433 104.571C170.02 104.454 169.67 104.178 169.459 103.804C169.249 103.429 169.195 102.987 169.31 102.573L169.947 100.312C170.004 100.107 170.101 99.9155 170.233 99.7481C170.364 99.5808 170.527 99.441 170.713 99.3367C170.898 99.2324 171.102 99.1657 171.314 99.1404C171.525 99.1151 171.739 99.1317 171.944 99.1892L175.085 100.069C175.291 100.127 175.483 100.225 175.651 100.357C175.819 100.489 175.959 100.653 176.063 100.84C176.168 101.025 176.235 101.229 176.26 101.441C176.285 101.652 176.267 101.867 176.208 102.071L175.577 104.333C175.48 104.672 175.275 104.971 174.993 105.184C174.711 105.397 174.368 105.512 174.014 105.512ZM173.849 104.478C173.926 104.5 174.007 104.506 174.087 104.497C174.167 104.487 174.244 104.462 174.315 104.423C174.385 104.383 174.447 104.33 174.496 104.267C174.546 104.203 174.583 104.131 174.604 104.053L175.241 101.792C175.284 101.636 175.263 101.468 175.184 101.327C175.104 101.185 174.972 101.081 174.816 101.036L171.67 100.157C171.593 100.135 171.512 100.128 171.432 100.138C171.353 100.147 171.276 100.173 171.206 100.212C171.136 100.252 171.075 100.304 171.026 100.368C170.976 100.431 170.94 100.504 170.919 100.581L170.283 102.837C170.261 102.914 170.255 102.995 170.264 103.075C170.274 103.154 170.299 103.231 170.338 103.301C170.378 103.371 170.431 103.432 170.494 103.481C170.557 103.53 170.63 103.567 170.707 103.587L173.849 104.478Z" fill="#C9C9C9"/>
<path d="M169.507 131.416L171.06 125.838L161.745 123.22L160.11 129.051C159.893 129.822 159.872 130.635 160.047 131.416H169.507Z" fill="#C9C9C9"/>
<path d="M122.952 90.6621H118.693V131.142H122.952V90.6621Z" fill="#282F66"/>
<path d="M145.966 90.6621H141.707V131.142H145.966V90.6621Z" fill="#282F66"/>
<path opacity="0.08" d="M122.952 90.6621H118.693V131.142H122.952V90.6621Z" fill="black"/>
<path opacity="0.08" d="M145.966 90.6621H141.707V131.142H145.966V90.6621Z" fill="black"/>
<path d="M151.022 95.6865H113.653V108.866H151.022V95.6865Z" fill="#282F66"/>
<path d="M115.548 95.6865L120.014 108.866H126.193L121.116 95.6865H115.548Z" fill="#24285B"/>
<path d="M126.984 95.6865L131.45 108.866H137.629L132.553 95.6865H126.984Z" fill="#24285B"/>
<path d="M138.39 95.6865L142.85 108.866H149.029L143.953 95.6865H138.39Z" fill="#24285B"/>
<path d="M151.022 113.859H113.653V120.038H151.022V113.859Z" fill="#282F66"/>
<path opacity="0.08" d="M140.973 95.6865L151.023 105.384V100.768L140.973 95.6865Z" fill="black"/>
<path d="M75.037 39.403L83.9846 38.1921C84.0543 38.1818 84.1193 38.1508 84.1711 38.1032C84.223 38.0555 84.2594 37.9934 84.2756 37.9248C84.2917 37.8562 84.2869 37.7844 84.2618 37.7186C84.2367 37.6528 84.1924 37.596 84.1347 37.5557L83.7517 37.2918C83.314 36.998 83.0049 36.5482 82.8875 36.0344C82.5511 34.6424 81.5523 31.8378 78.8717 31.724C75.4458 31.5739 72.0666 34.1405 74.1159 38.8803C74.1911 39.0562 74.322 39.2025 74.4883 39.2969C74.6547 39.3913 74.8474 39.4286 75.037 39.403Z" fill="#FFD200"/>
<path opacity="0.31" d="M74.2615 36.2782C74.2498 35.6707 74.3803 35.0689 74.6427 34.5208C74.9051 33.9728 75.292 33.4937 75.7726 33.1218C75.8226 33.0877 75.8823 33.0708 75.9427 33.0735C76.0032 33.0763 76.0611 33.0986 76.1078 33.1371C76.1545 33.1756 76.1874 33.2282 76.2016 33.2871C76.2158 33.3459 76.2105 33.4077 76.1866 33.4633C75.7549 34.3521 75.5151 35.3217 75.4828 36.3093C75.4782 36.4512 75.4239 36.587 75.3293 36.693C75.2347 36.7989 75.1058 36.8683 74.9653 36.8888C74.8776 36.9023 74.7881 36.8966 74.7029 36.8721C74.6177 36.8475 74.5389 36.8047 74.4719 36.7466C74.4049 36.6885 74.3514 36.6165 74.3151 36.5356C74.2787 36.4547 74.2604 36.3669 74.2615 36.2782Z" fill="white"/>
<path d="M158.257 59.1905C158.261 58.4916 158.112 57.8004 157.82 57.1654C157.528 56.5305 157.1 55.9674 156.566 55.5159C156.033 55.0644 155.407 54.7354 154.732 54.5523C154.058 54.3691 153.351 54.3362 152.663 54.4558C152.11 53.427 151.289 52.5671 150.286 51.9676C149.284 51.368 148.138 51.0513 146.97 51.051H146.732C147.023 49.9161 147.05 48.7297 146.812 47.5825C146.574 46.4354 146.077 45.3578 145.359 44.4322C144.641 43.5066 143.72 42.7575 142.668 42.2422C141.616 41.7269 140.459 41.459 139.288 41.459C138.116 41.459 136.96 41.7269 135.908 42.2422C134.855 42.7575 133.935 43.5066 133.216 44.4322C132.498 45.3578 132.001 46.4354 131.763 47.5825C131.525 48.7297 131.553 49.9161 131.844 51.051H131.605C129.89 51.051 128.244 51.7325 127.031 52.9455C125.818 54.1585 125.137 55.8037 125.137 57.5191C125.137 59.2346 125.818 60.8798 127.031 62.0928C128.244 63.3058 129.89 63.9873 131.605 63.9873H154.065V63.9459C155.223 63.7986 156.287 63.2345 157.058 62.3592C157.83 61.4838 158.256 60.3573 158.257 59.1905Z" fill="#E6E6E6"/>
<path d="M35.5059 43.7599C35.5114 42.8207 35.8883 41.9218 36.5545 41.2596C37.2206 40.5974 38.1218 40.2257 39.0611 40.2257C39.2534 40.2279 39.4454 40.2435 39.6355 40.2723C40.0456 39.5096 40.6549 38.8724 41.3986 38.4287C42.1422 37.9849 42.9923 37.7511 43.8583 37.7523H44.0343C43.9176 37.3028 43.8585 36.8403 43.8583 36.3759C43.8516 35.5659 44.0179 34.7637 44.346 34.0231C44.6742 33.2825 45.1567 32.6204 45.7612 32.0812C46.3657 31.5419 47.0784 31.1379 47.8516 30.8962C48.6248 30.6544 49.4407 30.5804 50.2448 30.6792C51.0489 30.778 51.8227 31.0472 52.5143 31.469C53.206 31.8907 53.7997 32.4552 54.2557 33.1248C54.7117 33.7943 55.0195 34.5534 55.1586 35.3515C55.2977 36.1495 55.2648 36.968 55.0622 37.7523H55.2382C55.8675 37.7523 56.4906 37.8763 57.072 38.1171C57.6534 38.3579 58.1817 38.7108 58.6267 39.1558C59.0716 39.6007 59.4246 40.1289 59.6654 40.7103C59.9063 41.2916 60.0302 41.9147 60.0302 42.5439C60.0302 43.1732 59.9063 43.7962 59.6654 44.3776C59.4246 44.9589 59.0716 45.4872 58.6267 45.9321C58.1817 46.377 57.6534 46.73 57.072 46.9708C56.4906 47.2116 55.8675 47.3355 55.2382 47.3355H38.6005V47.3045C37.7418 47.1912 36.9538 46.7687 36.3841 46.1163C35.8145 45.4638 35.5022 44.6261 35.5059 43.7599Z" fill="#E6E6E6"/>
<path d="M74.5204 90.8014C74.5204 90.8014 77.2993 76.0333 77.2993 67.8731C77.2993 55.8114 72.9316 50.6627 72.9316 50.6627L74.7429 50.0832C74.7429 50.0832 78.531 56.2564 84.7565 54.9421C90.5525 53.726 89.0828 48.1013 89.0569 48.0186H90.7336C90.7336 48.0186 96.1363 52.4376 97.4042 59.5525C99.557 71.6091 97.6888 88.5298 97.6888 88.5298L74.5204 90.8014Z" fill="#24285B"/>
<path d="M97.4198 88.5459H72.7402V91.6713H97.4198V88.5459Z" fill="#C9C9C9"/>
<path d="M75.6174 86.9209H72.797C72.194 86.9209 71.7051 87.4097 71.7051 88.0127V93.1562C71.7051 93.7592 72.194 94.248 72.797 94.248H75.6174C76.2204 94.248 76.7093 93.7592 76.7093 93.1562V88.0127C76.7093 87.4097 76.2204 86.9209 75.6174 86.9209Z" fill="#FFD200"/>
<path opacity="0.46" d="M75.6174 86.9209H72.797C72.194 86.9209 71.7051 87.4097 71.7051 88.0127V89.3529C71.7051 89.9559 72.194 90.4447 72.797 90.4447H75.6174C76.2204 90.4447 76.7093 89.9559 76.7093 89.3529V88.0127C76.7093 87.4097 76.2204 86.9209 75.6174 86.9209Z" fill="white"/>
<path d="M74.2094 89.3585C74.5952 89.3585 74.908 89.0456 74.908 88.6597C74.908 88.2738 74.5952 87.9609 74.2094 87.9609C73.8235 87.9609 73.5107 88.2738 73.5107 88.6597C73.5107 89.0456 73.8235 89.3585 74.2094 89.3585Z" fill="#24285B"/>
<path d="M81.5217 86.9209H78.7013C78.0982 86.9209 77.6094 87.4097 77.6094 88.0127V93.1562C77.6094 93.7592 78.0982 94.248 78.7013 94.248H81.5217C82.1247 94.248 82.6136 93.7592 82.6136 93.1562V88.0127C82.6136 87.4097 82.1247 86.9209 81.5217 86.9209Z" fill="#FFD200"/>
<path opacity="0.46" d="M81.5217 86.9209H78.7013C78.0982 86.9209 77.6094 87.4097 77.6094 88.0127V89.3529C77.6094 89.9559 78.0982 90.4447 78.7013 90.4447H81.5217C82.1247 90.4447 82.6136 89.9559 82.6136 89.3529V88.0127C82.6136 87.4097 82.1247 86.9209 81.5217 86.9209Z" fill="white"/>
<path d="M80.1088 89.3585C80.4946 89.3585 80.8074 89.0456 80.8074 88.6597C80.8074 88.2738 80.4946 87.9609 80.1088 87.9609C79.7229 87.9609 79.4102 88.2738 79.4102 88.6597C79.4102 89.0456 79.7229 89.3585 80.1088 89.3585Z" fill="#24285B"/>
<path d="M97.2697 86.9209H94.4493C93.8463 86.9209 93.3574 87.4097 93.3574 88.0127V93.1562C93.3574 93.7592 93.8463 94.248 94.4493 94.248H97.2697C97.8728 94.248 98.3617 93.7592 98.3617 93.1562V88.0127C98.3617 87.4097 97.8728 86.9209 97.2697 86.9209Z" fill="#FFD200"/>
<path opacity="0.46" d="M97.2697 86.9209H94.4493C93.8463 86.9209 93.3574 87.4097 93.3574 88.0127V89.3529C93.3574 89.9559 93.8463 90.4447 94.4493 90.4447H97.2697C97.8728 90.4447 98.3617 89.9559 98.3617 89.3529V88.0127C98.3617 87.4097 97.8728 86.9209 97.2697 86.9209Z" fill="white"/>
<path d="M95.8568 89.3585C96.2427 89.3585 96.5555 89.0456 96.5555 88.6597C96.5555 88.2738 96.2427 87.9609 95.8568 87.9609C95.471 87.9609 95.1582 88.2738 95.1582 88.6597C95.1582 89.0456 95.471 89.3585 95.8568 89.3585Z" fill="#24285B"/>
<path d="M111.029 129.119C111.029 129.119 112.934 126.376 110.088 125.621C107.241 124.866 110.776 121.171 108.126 120.685C105.477 120.198 105.922 124.105 105.922 124.105C105.922 124.105 104.095 122.552 102.817 123.856C101.538 125.16 103.334 126.63 103.334 126.63C103.334 126.63 100.783 127.51 102.372 129.119H111.029Z" fill="#E6E6E6"/>
<path d="M107.205 129.481C107.205 129.481 108.416 127.412 110.196 127.665C110.422 127.673 110.644 127.728 110.849 127.825C111.053 127.922 111.236 128.059 111.385 128.229C111.534 128.4 111.647 128.598 111.717 128.814C111.786 129.029 111.811 129.256 111.79 129.481H107.205Z" fill="#C9C9C9"/>
<path opacity="0.2" d="M95.6288 69.0791C95.6288 69.0791 84.5905 69.788 81.2578 69.0791L80.8076 78.119C80.8076 78.119 91.9132 79.6713 95.1579 78.4915L95.6288 69.0791Z" fill="white"/>
</svg>
