<svg width="207" height="156" viewBox="0 0 207 156" fill="none" xmlns="http://www.w3.org/2000/svg">
<path d="M159.824 33.0332H47.1751L21.9004 122.837H185.099L159.824 33.0332Z" fill="#282F66"/>
<path d="M49.6801 35.5693L27.8364 117.709H179.164L157.32 35.5693H49.6801ZM114.963 36.2472C115.071 42.0426 110.021 46.9533 103.5 46.9533C96.9796 46.9533 91.9288 42.0375 92.053 36.2265L114.963 36.2472ZM82.0497 116.39L83.2245 100.825H123.807L124.982 116.39H82.0497ZM126.037 116.39L124.707 99.6453H82.324L80.994 116.39H65.9865L70.5354 82.0312H136.517L141.065 116.39H126.037ZM92.9845 81.0119C93.502 74.8801 98.1129 70.1868 103.531 70.1868C108.949 70.1868 113.576 74.8801 114.078 81.0119H92.9845ZM177.803 116.39H142.095L137.282 81.0119H114.952C114.435 74.3471 109.374 69.2606 103.5 69.2606C97.6265 69.2606 92.5912 74.3471 92.0478 81.0119H69.7384L64.9256 116.39H29.2181L50.2286 36.2317H91.3078C91.1422 42.4411 96.5242 47.7191 103.5 47.7191C110.476 47.7191 115.858 42.4411 115.692 36.2317H156.772L177.803 116.39Z" fill="white"/>
<path opacity="0.08" d="M71.0683 52.4227C76.9045 52.4227 81.6357 51.3918 81.6357 50.12C81.6357 48.8483 76.9045 47.8174 71.0683 47.8174C65.2321 47.8174 60.501 48.8483 60.501 50.12C60.501 51.3918 65.2321 52.4227 71.0683 52.4227Z" fill="black"/>
<path d="M76.0363 22.8135H66.0952C64.3382 22.8122 62.6373 23.4316 61.2928 24.5625L54.7412 30.0578L60.175 36.4276L63.3783 33.8404V50.0262H78.7532V33.8404L81.9565 36.4276L87.3903 30.0578L80.8387 24.5625C79.4942 23.4316 77.7933 22.8122 76.0363 22.8135Z" fill="#FFD200"/>
<path opacity="0.08" d="M75.7257 22.8135C75.7257 23.9674 73.5988 24.8833 70.9751 24.8833C68.3513 24.8833 66.2192 23.9415 66.2192 22.8135" fill="black"/>
<path opacity="0.46" d="M78.7585 36.9297H63.3784V42.6734H78.7585V36.9297Z" fill="white"/>
<path opacity="0.08" d="M135.932 52.4227C141.768 52.4227 146.499 51.3918 146.499 50.12C146.499 48.8483 141.768 47.8174 135.932 47.8174C130.095 47.8174 125.364 48.8483 125.364 50.12C125.364 51.3918 130.095 52.4227 135.932 52.4227Z" fill="black"/>
<path d="M140.905 22.8135H130.964C129.207 22.8122 127.506 23.4316 126.161 24.5625L119.61 30.0578L125.044 36.4276L128.247 33.8404V50.0262H143.622V33.8404L146.825 36.4276L152.259 30.0578L145.707 24.5625C144.363 23.4316 142.662 22.8122 140.905 22.8135Z" fill="#FFD200"/>
<path opacity="0.08" d="M140.594 22.8135C140.594 23.9674 138.467 24.8833 135.839 24.8833C133.21 24.8833 131.088 23.9415 131.088 22.8135" fill="black"/>
<path opacity="0.46" d="M143.627 36.9297H128.247V42.6734H143.627V36.9297Z" fill="white"/>
<path opacity="0.08" d="M103.5 79.7332C109.336 79.7332 114.067 78.7023 114.067 77.4306C114.067 76.1589 109.336 75.1279 103.5 75.1279C97.6638 75.1279 92.9326 76.1589 92.9326 77.4306C92.9326 78.7023 97.6638 79.7332 103.5 79.7332Z" fill="black"/>
<path d="M108.468 50.1201H98.5322C96.7739 50.1203 95.0719 50.7395 93.7246 51.8691L87.1782 57.3644L92.6327 63.7394L95.836 61.1522V77.338H111.216V61.1522L114.419 63.7394L119.848 57.3644L113.276 51.8691C111.928 50.7395 110.226 50.1203 108.468 50.1201Z" fill="#FFD200"/>
<path opacity="0.08" d="M108.158 50.1201C108.158 51.2792 106.026 52.221 103.402 52.221C100.778 52.221 98.646 51.2792 98.646 50.1201" fill="black"/>
<path opacity="0.46" d="M111.19 64.2412H95.8101V69.9849H111.19V64.2412Z" fill="white"/>
<path opacity="0.08" d="M103.5 114.899C109.336 114.899 114.067 113.868 114.067 112.597C114.067 111.325 109.336 110.294 103.5 110.294C97.6638 110.294 92.9326 111.325 92.9326 112.597C92.9326 113.868 97.6638 114.899 103.5 114.899Z" fill="black"/>
<path d="M108.468 85.2911H98.5322C96.7735 85.289 95.0707 85.9085 93.7246 87.0401L87.1782 92.5354L92.6327 98.9052L95.836 96.318V112.504H111.216V96.318L114.419 98.9052L119.848 92.5354L113.302 87.0401C111.949 85.9027 110.236 85.2829 108.468 85.2911Z" fill="#24285B"/>
<path opacity="0.46" d="M108.158 85.291C108.158 86.4501 106.026 87.3608 103.402 87.3608C100.778 87.3608 98.646 86.4242 98.646 85.291" fill="white"/>
<path opacity="0.08" d="M155.524 92.6024C161.361 92.6024 166.092 91.5714 166.092 90.2997C166.092 89.028 161.361 87.9971 155.524 87.9971C149.688 87.9971 144.957 89.028 144.957 90.2997C144.957 91.5714 149.688 92.6024 155.524 92.6024Z" fill="black"/>
<path d="M160.492 62.9941H150.556C148.8 62.9955 147.1 63.6146 145.754 64.7431L139.208 70.2385L144.641 76.6083L147.839 74.021V90.2069H163.22V74.0158L166.423 76.6031L171.851 70.2385L165.3 64.7431C163.953 63.6135 162.251 62.9943 160.492 62.9941Z" fill="#FFD200"/>
<path opacity="0.08" d="M160.187 62.9941C160.187 64.1532 158.06 65.0898 155.431 65.0898C152.802 65.0898 150.681 64.1532 150.681 62.9941" fill="black"/>
<path opacity="0.46" d="M163.214 77.1104H147.834V82.8541H163.214V77.1104Z" fill="white"/>
<path opacity="0.08" d="M51.4756 92.6024C57.3117 92.6024 62.0429 91.5714 62.0429 90.2997C62.0429 89.028 57.3117 87.9971 51.4756 87.9971C45.6394 87.9971 40.9082 89.028 40.9082 90.2997C40.9082 91.5714 45.6394 92.6024 51.4756 92.6024Z" fill="black"/>
<path d="M56.4436 62.9941H46.5076C44.7493 62.9943 43.0473 63.6135 41.7 64.7431L35.1484 70.2385L40.5822 76.6083L43.7855 74.021V90.2069H59.1656V74.0158L62.3638 76.6031L67.7923 70.2385L61.2408 64.7431C59.8962 63.6158 58.1983 62.9967 56.4436 62.9941Z" fill="#FFD200"/>
<path opacity="0.08" d="M56.1334 62.9941C56.1334 64.1532 54.0065 65.0898 51.3828 65.0898C48.7591 65.0898 46.627 64.1481 46.627 62.9941" fill="black"/>
<path opacity="0.46" d="M59.1657 77.1104H43.7856V82.8541H59.1657V77.1104Z" fill="white"/>
</svg>
