<svg width="572" height="431" viewBox="0 0 572 431" fill="none" xmlns="http://www.w3.org/2000/svg">
<path opacity="0.3" d="M145.703 84.7609C97.2399 97.8705 58.873 128.593 52.8241 185.135C47.7333 232.784 57.3143 312.629 138.624 328.54C217.274 343.952 501.015 374.617 519.676 274.443C530.287 217.459 531.474 120.787 441.527 90.0219C380.551 69.0636 249.706 56.6544 145.703 84.7609Z" fill="#E6E6E6"/>
<path opacity="0.45" d="M378.049 372.259C456.268 372.259 519.676 365.922 519.676 358.105C519.676 350.289 456.268 343.952 378.049 343.952C299.831 343.952 236.422 350.289 236.422 358.105C236.422 365.922 299.831 372.259 378.049 372.259Z" fill="#E6E6E6"/>
<path opacity="0.45" d="M141.37 372.259C176.349 372.259 204.705 365.922 204.705 358.105C204.705 350.289 176.349 343.952 141.37 343.952C106.391 343.952 78.0352 350.289 78.0352 358.105C78.0352 365.922 106.391 372.259 141.37 372.259Z" fill="#E6E6E6"/>
<path d="M158.373 157.629C158.373 157.629 180.252 163.204 180.409 181.318C180.566 199.431 170.714 231.14 184.785 233.728C198.856 236.315 207.35 197.172 207.35 197.172L217.36 201.218C217.36 201.218 206.678 268.082 169.798 257.059C132.919 246.037 158.373 157.629 158.373 157.629Z" fill="#282F66"/>
<path opacity="0.44" d="M158.373 157.629C158.373 157.629 180.252 163.204 180.409 181.318C180.566 199.431 170.714 231.14 184.785 233.728C198.856 236.315 207.35 197.172 207.35 197.172L217.36 201.218C217.36 201.218 206.678 268.082 169.798 257.059C132.919 246.037 158.373 157.629 158.373 157.629Z" fill="white"/>
<path d="M209.609 198.115C209.609 198.115 210.181 188.437 214.071 185.678C217.961 182.918 217.303 189.967 217.303 189.967C217.303 189.967 221.192 185.435 224.453 187.536C227.713 189.638 217.303 201.289 217.303 201.289L209.609 198.115Z" fill="#F4A28C"/>
<path d="M140.455 117.971C140.639 122.249 140.25 126.534 139.297 130.709C139.153 131.203 138.912 131.664 138.587 132.064C138.263 132.464 137.861 132.795 137.407 133.037C136.952 133.28 136.454 133.429 135.941 133.476C135.428 133.523 134.911 133.467 134.42 133.311C132.819 132.927 131.363 132.09 130.224 130.901C129.086 129.713 128.314 128.221 128 126.606L125.983 119.786C125.732 118.38 125.923 116.931 126.53 115.638C127.137 114.345 128.13 113.272 129.372 112.567C133.834 109.579 140.469 113.267 140.455 117.971Z" fill="#F4A28C"/>
<path d="M126.555 123.275L123.695 148.365L137.637 148.951L134.12 130.452L126.555 123.275Z" fill="#F4A28C"/>
<path d="M138.524 118.286C136.116 118.284 133.717 118.001 131.374 117.443C132.02 118.517 132.337 119.757 132.286 121.009C132.236 122.262 131.819 123.472 131.088 124.491C130.707 125.065 130.212 125.556 129.635 125.932C129.057 126.308 128.408 126.562 127.728 126.678C127.353 126.721 126.973 126.681 126.615 126.56C126.258 126.44 125.931 126.243 125.658 125.982C125.385 125.722 125.173 125.404 125.036 125.053C124.9 124.701 124.842 124.324 124.868 123.947L125.268 116.427C125.302 115.008 125.719 113.624 126.474 112.421C127.229 111.218 128.294 110.242 129.558 109.594C130.654 109.052 131.781 108.574 132.933 108.164C135.793 107.135 139.926 109.208 142.557 107.392C142.821 107.22 143.125 107.118 143.44 107.096C143.754 107.073 144.07 107.131 144.356 107.264C144.642 107.397 144.889 107.601 145.075 107.856C145.261 108.111 145.378 108.409 145.417 108.722C145.731 111.753 145.002 116.47 140.855 117.943C140.102 118.182 139.315 118.298 138.524 118.286Z" fill="#24285B"/>
<path d="M131.989 124.218C131.989 124.218 131.989 121.259 129.815 121.359C127.642 121.459 127.47 125.791 130.473 126.305L131.989 124.218Z" fill="#F4A28C"/>
<path d="M140.426 122.832L142.442 125.877C142.558 126.052 142.628 126.253 142.644 126.462C142.661 126.671 142.624 126.88 142.536 127.071C142.449 127.261 142.314 127.426 142.145 127.55C141.976 127.674 141.778 127.753 141.57 127.779L138.624 128.293L140.426 122.832Z" fill="#F4A28C"/>
<path opacity="0.31" d="M133.919 131.052C132.138 131.074 130.389 130.577 128.886 129.622C128.886 129.622 129.086 134.283 135.135 137.456L133.919 131.052Z" fill="#CE8172"/>
<path d="M109.881 348.455C109.881 348.455 108.723 352.873 104.891 353.559C101.058 354.245 100.372 358.105 103.947 358.777C107.522 359.449 116.087 354.174 116.087 354.174L115.33 348.612L109.881 348.455Z" fill="#282F66"/>
<path d="M172.172 348.455C172.172 348.455 173.33 352.873 177.163 353.559C180.995 354.245 181.682 358.105 178.107 358.777C174.532 359.449 165.966 354.159 165.966 354.159L166.724 348.598L172.172 348.455Z" fill="#282F66"/>
<path d="M184.699 187.322C184.863 177.61 181.402 168.185 174.99 160.886C168.578 153.588 159.676 148.94 150.021 147.85C131.188 145.634 97.1111 142.918 83.9408 150.281C65.3508 160.688 96.5534 257.274 96.5534 257.274H160.031C160.031 257.274 183.926 219.274 184.699 187.322Z" fill="#282F66"/>
<path opacity="0.08" d="M101.63 158.644C101.63 158.644 115.93 162.589 112.083 185.134H130.673L130.974 209.781C131.097 219.54 133.844 229.086 138.926 237.42C144.008 245.753 151.239 252.566 159.86 257.145L160.031 257.23H96.5536L94.0654 249.167L101.63 158.644Z" fill="black"/>
<path d="M103.947 169.108C104.231 166.072 103.701 163.014 102.41 160.25C101.12 157.486 99.1155 155.116 96.604 153.385C94.0924 151.653 91.1644 150.622 88.1217 150.398C85.079 150.174 82.0316 150.765 79.2934 152.11C66.166 158.644 52.3522 171.667 48.9202 197.615C42.7998 243.778 55.5125 256.53 79.3506 242.977C94.9805 234.085 101.387 194.985 103.947 169.108Z" fill="#282F66"/>
<path opacity="0.46" d="M103.947 169.108C104.231 166.072 103.701 163.014 102.41 160.25C101.12 157.486 99.1155 155.116 96.604 153.385C94.0924 151.653 91.1644 150.622 88.1217 150.398C85.079 150.174 82.0316 150.765 79.2934 152.11C66.166 158.644 52.3522 171.667 48.9202 197.615C42.7998 243.778 55.5125 256.53 79.3506 242.977C94.9805 234.085 101.387 194.985 103.947 169.108Z" fill="white"/>
<path d="M118.59 177.715H61.0181V249.196H118.59V177.715Z" fill="#FFD200"/>
<path d="M79.3506 177.715C79.3506 177.715 83.3832 168.752 91.4484 172.125C99.5136 175.499 94.0224 186.15 79.3506 177.715Z" fill="#F4A28C"/>
<path opacity="0.58" d="M106.864 189.81H70.5562V216.2H106.864V189.81Z" fill="white"/>
<path d="M106.864 224.764H70.5562V234.042H106.864V224.764Z" fill="white"/>
<path d="M96.5537 257.274L106.85 348.77H118.59C118.59 348.77 115.516 279.633 133.19 268.396C150.865 257.16 160.031 257.217 160.031 257.217L96.5537 257.274Z" fill="#24285B"/>
<path d="M160.032 257.273L175.762 348.769H164.765C164.765 348.769 151.194 280.762 118.562 270.14C118.59 270.097 138.024 259.475 160.032 257.273Z" fill="#24285B"/>
<path d="M510.61 333.115H442.414V354.803H510.61V333.115Z" fill="#E6E6E6"/>
<path opacity="0.43" d="M495.695 311.899H427.499V333.587H495.695V311.899Z" fill="#E6E6E6"/>
<path opacity="0.58" d="M477.463 294.658C477.463 294.658 463.849 290.941 460.889 278.275C460.889 278.275 481.982 273.986 482.582 295.773L477.463 294.658Z" fill="#282F66"/>
<path opacity="0.73" d="M479.122 293.301C479.122 293.301 469.612 278.275 477.992 264.236C477.992 264.236 494.022 274.415 486.901 293.343L479.122 293.301Z" fill="#282F66"/>
<path d="M481.581 293.314C481.581 293.314 486.6 277.446 501.787 274.443C501.787 274.443 504.647 284.751 491.949 293.357L481.581 293.314Z" fill="#282F66"/>
<path d="M471.714 292.957L474.459 311.828L491.834 311.9L494.394 293.057L471.714 292.957Z" fill="#24285B"/>
<path d="M455.527 58.7422H256.928V355.418H455.527V58.7422Z" fill="#CCCCCC"/>
<path d="M437.752 92.5527H273.359V301.349H437.752V92.5527Z" fill="white"/>
<path opacity="0.12" d="M395.109 70.3359H339.425V77.0981H395.109V70.3359Z" fill="black"/>
<path d="M321.607 81.7874C325.666 81.7874 328.957 78.4974 328.957 74.4391C328.957 70.3808 325.666 67.0908 321.607 67.0908C317.548 67.0908 314.257 70.3808 314.257 74.4391C314.257 78.4974 317.548 81.7874 321.607 81.7874Z" fill="#E6E6E6"/>
<path d="M325.854 184.72L313.484 197.587C312.499 198.615 311.29 199.402 309.95 199.886C308.61 200.369 307.177 200.536 305.762 200.375C304.347 200.213 302.989 199.726 301.793 198.952C300.598 198.178 299.597 197.139 298.87 195.914L282.854 168.651C282.413 167.898 282.086 167.084 281.881 166.235C281.181 163.376 279.265 156.228 277.134 155.384C274.445 154.384 273.773 160.989 273.773 160.989C273.773 160.989 266.037 155.828 262.691 160.989C260.689 164.048 265.551 168.137 269.841 170.996C273.435 173.328 276.109 176.834 277.406 180.918C281.51 193.884 291.534 221.405 303.317 223.678C318.775 226.651 346.06 203.377 346.06 203.377L325.854 184.72Z" fill="#F4A28C"/>
<path d="M355.87 141.975C355.87 141.975 306.635 149.938 312.684 183.949C317.06 208.581 329.844 206.823 329.243 225.608L328.957 237.545L381.324 235.958C381.324 235.958 377.992 212.398 384.541 195.643C391.091 178.888 409.066 137.5 355.87 141.975Z" fill="#282F66"/>
<path d="M367.267 112.581L369.555 142.26L353.096 142.346L358.044 120.716L367.267 112.581Z" fill="#F4A28C"/>
<path opacity="0.09" d="M370.613 148.308C370.613 148.308 345.03 155.97 353.095 178.001C361.161 200.031 374.002 213.999 361.075 221.033C348.148 228.066 328.9 237.545 328.9 237.545H373.23L383.755 226.108L392.864 192.969L370.613 148.308Z" fill="black"/>
<path opacity="0.31" d="M356.756 125.434C358.837 125.085 360.77 124.136 362.319 122.703C362.319 122.703 361.647 128.107 355.169 132.982L356.756 125.434Z" fill="#CE8172"/>
<path d="M350.75 110.079C350.75 110.079 349.749 119.114 351.122 125.176C351.257 125.762 351.506 126.315 351.855 126.804C352.204 127.293 352.647 127.708 353.157 128.026C353.667 128.343 354.235 128.557 354.829 128.654C355.422 128.751 356.028 128.731 356.613 128.593C359.659 127.849 363.549 125.977 364.678 121.202L367.538 113.339C367.959 111.702 367.859 109.976 367.255 108.398C366.65 106.82 365.57 105.469 364.164 104.532C359.173 100.729 351.079 104.561 350.75 110.079Z" fill="#F4A28C"/>
<path d="M328.957 237.545L318.99 301.349H389.06L381.338 235.958L328.957 237.545Z" fill="#24285B"/>
<path d="M360.217 118.086C360.217 118.086 360.374 114.597 362.991 114.926C365.608 115.255 365.422 120.316 361.847 120.645L360.217 118.086Z" fill="#F4A28C"/>
<path d="M350.35 115.812L347.733 119.244C347.578 119.437 347.476 119.667 347.436 119.911C347.397 120.156 347.422 120.406 347.508 120.638C347.594 120.87 347.74 121.076 347.93 121.235C348.12 121.394 348.347 121.501 348.591 121.545L352.052 122.289L350.35 115.812Z" fill="#F4A28C"/>
<path d="M362.991 114.926C362.991 114.926 352.066 141.732 360.818 146.878C369.569 152.025 385.128 150.896 387.23 139.473C389.332 128.05 378.092 125.177 377.992 109.208C377.892 93.2389 347.176 94.3541 346.847 103.489C346.518 112.625 362.991 114.926 362.991 114.926Z" fill="#24285B"/>
<path d="M370.613 148.307C372.04 147.129 373.7 146.266 375.484 145.776C377.269 145.286 379.137 145.18 380.966 145.465C382.794 145.75 384.542 146.42 386.092 147.429C387.643 148.439 388.961 149.767 389.961 151.324C398.207 163.847 402.217 178.684 401.401 193.655C399.614 225.436 406.435 244.693 373.173 237.544C348.863 232.326 319.405 192.54 319.405 192.54C319.405 192.54 309.552 186.006 317.174 176.385C324.796 166.764 330.602 189.595 330.602 189.595C330.602 189.595 370.484 222.848 378.55 213.169C385.614 204.677 349.935 165.806 370.613 148.307Z" fill="#F4A28C"/>
<path d="M416.03 126.449C422.909 126.449 428.485 120.874 428.485 113.997C428.485 107.12 422.909 101.545 416.03 101.545C409.151 101.545 403.575 107.12 403.575 113.997C403.575 120.874 409.151 126.449 416.03 126.449Z" fill="#282F66"/>
<path opacity="0.32" d="M399.9 126.449C406.779 126.449 412.355 120.874 412.355 113.997C412.355 107.12 406.779 101.545 399.9 101.545C393.021 101.545 387.444 107.12 387.444 113.997C387.444 120.874 393.021 126.449 399.9 126.449Z" fill="#282F66"/>
<path d="M356.299 292.042C368.287 292.042 378.006 282.326 378.006 270.34C378.006 258.355 368.287 248.639 356.299 248.639C344.31 248.639 334.591 258.355 334.591 270.34C334.591 282.326 344.31 292.042 356.299 292.042Z" fill="#282F66"/>
<path d="M355.083 271.899C353.562 270.443 352.558 268.53 352.223 266.452C352.209 266.326 352.223 266.199 352.266 266.081C352.308 265.962 352.376 265.854 352.467 265.766L354.297 263.936C354.431 263.806 354.516 263.634 354.537 263.449C354.558 263.263 354.513 263.077 354.411 262.921L351.551 258.374C351.442 258.204 351.274 258.079 351.079 258.024C350.884 257.968 350.676 257.986 350.493 258.074L345.788 260.29C345.639 260.363 345.516 260.481 345.437 260.627C345.357 260.773 345.325 260.94 345.345 261.105C346.118 266.302 348.54 271.114 352.256 274.831C355.971 278.547 360.782 280.972 365.98 281.749C366.147 281.767 366.315 281.733 366.461 281.651C366.608 281.569 366.724 281.443 366.795 281.291L369.012 276.602C369.103 276.42 369.122 276.211 369.067 276.015C369.011 275.819 368.884 275.651 368.711 275.544L364.078 272.685C363.921 272.585 363.735 272.543 363.55 272.563C363.366 272.584 363.194 272.667 363.063 272.799L361.218 274.644C361.128 274.73 361.019 274.796 360.901 274.835C360.782 274.875 360.656 274.887 360.532 274.872C358.451 274.542 356.537 273.537 355.083 272.013V271.899Z" fill="white"/>
<path opacity="0.09" d="M456.699 154.627H406.721V231.226H456.699V154.627Z" fill="#CCCCCC"/>
<path d="M509.981 148.45H412.355V225.049H509.981V148.45Z" fill="#E6E6E6"/>
<path d="M509.981 140.287H412.355V148.45H509.981V140.287Z" fill="#B3B3B3"/>
<path d="M448.634 150.681L424.71 169.752C424.71 169.752 402.259 192.268 416.345 206.994C430.43 221.719 450.965 200.16 450.965 200.16L448.634 150.681Z" fill="#282F66"/>
<path opacity="0.08" d="M448.634 150.681L424.71 169.752C424.71 169.752 402.259 192.268 416.345 206.994C430.43 221.719 450.965 200.16 450.965 200.16L448.634 150.681Z" fill="black"/>
<path d="M422.417 157.628L420.247 159.333L431.282 173.373L433.453 171.668L422.417 157.628Z" fill="#24285B"/>
<path d="M424.71 169.752C424.71 169.752 428.428 165.363 431.774 166.807C435.121 168.251 434.248 174.913 428.414 175.028C422.579 175.142 424.71 169.752 424.71 169.752Z" fill="#F4A28C"/>
<path d="M459.902 121.216C459.621 124.376 459.77 127.56 460.346 130.68C460.438 131.046 460.601 131.39 460.826 131.693C461.051 131.995 461.334 132.25 461.659 132.443C461.983 132.635 462.342 132.762 462.716 132.815C463.089 132.869 463.47 132.847 463.835 132.753C465.032 132.52 466.137 131.947 467.017 131.103C467.897 130.258 468.515 129.179 468.797 127.992L470.513 123.017C470.75 121.985 470.661 120.904 470.259 119.924C469.857 118.943 469.162 118.111 468.268 117.542C465.05 115.226 460.031 117.742 459.902 121.216Z" fill="#F4A28C"/>
<path d="M470.198 123.918L473.087 142.389L462.805 143.261L464.836 129.465L470.198 123.918Z" fill="#F4A28C"/>
<path d="M459.759 124.805L458.172 127.006C458.083 127.131 458.027 127.276 458.008 127.428C457.99 127.581 458.01 127.735 458.067 127.877C458.124 128.02 458.216 128.145 458.334 128.243C458.453 128.341 458.593 128.407 458.744 128.436L460.918 128.851L459.759 124.805Z" fill="#F4A28C"/>
<path opacity="0.31" d="M464.264 132.467C465.548 132.149 466.711 131.463 467.61 130.494C467.216 133.17 465.814 135.594 463.692 137.271L464.264 132.467Z" fill="#CE8172"/>
<path d="M440.54 224.864H479.979C492.506 205.149 520.792 152.668 474.631 142.389L461.761 143.475C461.761 143.475 436.364 150.938 437.38 174.813C438.266 194.055 439.925 216.786 440.54 224.864Z" fill="#282F66"/>
<path opacity="0.08" d="M440.554 224.864H479.551C484.956 213.727 501.63 174.827 480.023 157.672C476.404 159.682 473.429 162.676 471.442 166.306C469.455 169.937 468.538 174.056 468.797 178.187C469.641 192.698 467.253 197.901 452.281 196.229C437.308 194.556 438.881 201.047 438.881 201.047L440.554 224.864Z" fill="black"/>
<path d="M459.759 113.911C459.759 113.911 456.542 121.803 462.805 122.489C469.069 123.175 465.108 127.407 468.797 128.036C472.486 128.665 476.691 119.716 473.087 115.169C469.483 110.623 461.561 110.28 459.759 113.911Z" fill="#24285B"/>
<path d="M475.904 162.36C475.68 160.433 476.055 158.484 476.979 156.778C477.903 155.071 479.33 153.691 481.067 152.826C482.804 151.96 484.765 151.65 486.684 151.939C488.603 152.228 490.387 153.102 491.791 154.44C500.582 162.81 506.073 174.058 507.264 186.135C510.996 217.287 500.028 247.923 451.809 198.43L456.713 192.711C456.713 192.711 480.68 209.252 487.759 206.421C493.178 204.306 478.078 181.903 475.904 162.36Z" fill="#282F66"/>
<path opacity="0.46" d="M475.904 162.36C475.68 160.433 476.055 158.484 476.979 156.778C477.903 155.071 479.33 153.691 481.067 152.826C482.804 151.96 484.765 151.65 486.684 151.939C488.603 152.228 490.387 153.102 491.791 154.44C500.582 162.81 506.073 174.058 507.264 186.135C510.996 217.287 500.028 247.923 451.809 198.43L456.713 192.711C456.713 192.711 480.68 209.252 487.759 206.421C493.178 204.306 478.078 181.903 475.904 162.36Z" fill="white"/>
<path d="M450.08 168.919L424.7 172.129L429.388 209.175L454.768 205.965L450.08 168.919Z" fill="#FFD200"/>
<path d="M453.081 196.914C453.081 196.914 443.157 192.125 445.574 188.523C447.99 184.92 456.713 192.711 456.713 192.711L453.081 196.914Z" fill="#F4A28C"/>
<path opacity="0.09" d="M319.905 252.155H257.186V318.075H319.905V252.155Z" fill="#CCCCCC"/>
<path d="M312.455 244.293H228.428V310.213H312.455V244.293Z" fill="#E6E6E6"/>
<path d="M312.455 235.887H228.428V244.307H312.455V235.887Z" fill="#B3B3B3"/>
<path d="M244.53 310.227L241.813 277.817C241.813 277.817 255.112 276.045 256.299 276.388C257.028 276.574 257.2 295.659 257.214 310.256L244.53 310.227Z" fill="#F4A28C"/>
<path d="M267.753 229.868C267.753 229.868 272.844 225.937 276.562 229.01C280.28 232.084 277.149 243.693 285.671 241.377C285.671 241.377 276.205 248.525 270.37 235.887L267.753 229.868Z" fill="#24285B"/>
<path d="M271.299 238.088C271.299 238.088 274.66 237.759 273.487 233.156C272.315 228.552 268.525 228.552 267.396 229.696L271.299 238.088Z" fill="#282F66"/>
<path d="M261.447 235.172C261.577 237.383 262.005 239.566 262.719 241.663C262.82 241.906 262.967 242.127 263.153 242.313C263.339 242.498 263.56 242.645 263.804 242.745C264.047 242.845 264.308 242.895 264.571 242.894C264.834 242.892 265.094 242.838 265.336 242.735C266.138 242.451 266.842 241.943 267.364 241.272C267.887 240.6 268.205 239.793 268.282 238.946L268.954 235.344C269.013 234.604 268.841 233.865 268.462 233.228C268.083 232.59 267.515 232.086 266.838 231.784C266.263 231.524 265.633 231.41 265.004 231.453C264.375 231.496 263.766 231.694 263.232 232.03C262.698 232.365 262.255 232.828 261.944 233.376C261.632 233.925 261.462 234.542 261.447 235.172Z" fill="#F4A28C"/>
<path d="M269.684 237.402L271.686 250.283L264.507 250.884L265.894 241.505L269.684 237.402Z" fill="#F4A28C"/>
<path d="M261.69 237.674L260.818 239.346C260.767 239.441 260.74 239.546 260.741 239.653C260.742 239.76 260.771 239.865 260.824 239.958C260.877 240.051 260.952 240.129 261.044 240.185C261.136 240.24 261.24 240.272 261.347 240.276H262.906L261.69 237.674Z" fill="#F4A28C"/>
<path opacity="0.31" d="M265.852 241.776C266.706 241.551 267.482 241.096 268.097 240.461C268.255 241.34 268.069 242.247 267.576 242.992C267.083 243.738 266.322 244.265 265.451 244.464L265.852 241.776Z" fill="#CE8172"/>
<path d="M269.412 237.459C269.412 237.459 269.212 235.929 270.37 235.886C271.529 235.843 271.8 238.031 270.37 238.46L269.412 237.459Z" fill="#F4A28C"/>
<path d="M262.248 234.871C263.522 234.997 264.808 234.905 266.052 234.6C266.052 234.6 267.167 238.889 270.742 239.818C270.742 239.818 273.602 233.013 269.312 230.74C265.751 228.838 263.092 227.123 260.46 229.853C260.076 230.252 259.81 230.75 259.693 231.291C259.576 231.832 259.613 232.395 259.798 232.916C259.984 233.438 260.312 233.897 260.745 234.243C261.177 234.588 261.698 234.806 262.248 234.871Z" fill="#24285B"/>
<path d="M266.151 236.944C266.151 236.944 266.151 235.171 267.581 235.343C269.011 235.514 269.14 237.587 267.424 238.517L266.151 236.944Z" fill="#F4A28C"/>
<path d="M249.678 310.227L249.063 302.622C248.817 299.766 247.744 297.043 245.974 294.787C225.039 267.625 264.564 250.884 264.564 250.884L271.714 250.283C310.496 258.99 296.024 293.172 285.885 310.227H249.678Z" fill="#282F66"/>
<path opacity="0.08" d="M249.678 310.227L249.263 304.409C249.263 304.409 251.794 294.101 264.107 302.65C276.419 311.2 283.326 301.335 272.687 289.198C269.693 285.989 267.874 281.861 267.527 277.487C267.179 273.113 268.322 268.75 270.77 265.108L299.814 294.816L292.478 310.227H249.678Z" fill="black"/>
<path d="M303.689 310.227H264.292C260.738 307.714 257.325 305.008 254.068 302.121C250.421 301.134 248.72 294.973 251.78 294.115C254.84 293.257 256.628 298.161 256.628 298.161C256.628 298.161 281.009 314.973 288.188 305.452C290.404 302.507 287.773 297.803 285.8 294.015C282.225 287.281 270.87 275.558 270.799 265.065C270.799 256.487 280.909 251.841 287.63 257.188C296.725 264.336 309.509 276.559 304.518 306.41C304.314 307.697 304.037 308.971 303.689 310.227Z" fill="#F4A28C"/>
<path d="M274.46 250.969C274.46 250.969 275.59 247.939 269.927 247.038C264.264 246.137 259.602 248.353 261.347 252.456C261.29 252.456 265.422 256.073 274.46 250.969Z" fill="#282F66"/>
<path opacity="0.46" d="M274.46 250.969C274.46 250.969 275.59 247.939 269.927 247.038C264.264 246.137 259.602 248.353 261.347 252.456C261.29 252.456 265.422 256.073 274.46 250.969Z" fill="white"/>
<path opacity="0.09" d="M356.227 342.98C364.204 342.98 370.67 336.515 370.67 328.541C370.67 320.566 364.204 314.102 356.227 314.102C348.251 314.102 341.784 320.566 341.784 328.541C341.784 336.515 348.251 342.98 356.227 342.98Z" fill="black"/>
</svg>
