<svg width="207" height="156" viewBox="0 0 207 156" fill="none" xmlns="http://www.w3.org/2000/svg">
<path d="M137.023 61.5815C137.023 61.5815 135.036 70.6421 124.515 71.6667C113.994 72.6912 99.2871 48.1123 99.2871 48.1123C99.2871 48.1123 111.981 49.4008 116.608 55.6102C121.234 61.8196 125.752 64.7173 132.997 59.8895L137.023 61.5815Z" fill="#282F66"/>
<path opacity="0.2" d="M137.023 61.5815C137.023 61.5815 135.036 70.6421 124.515 71.6667C113.994 72.6912 99.2871 48.1123 99.2871 48.1123C99.2871 48.1123 111.981 49.4008 116.608 55.6102C121.234 61.8196 125.752 64.7173 132.997 59.8895L137.023 61.5815Z" fill="white"/>
<path opacity="0.45" d="M106.429 141.616C135.224 141.616 158.567 138.384 158.567 134.397C158.567 130.411 135.224 127.179 106.429 127.179C77.634 127.179 54.291 130.411 54.291 134.397C54.291 138.384 77.634 141.616 106.429 141.616Z" fill="#E6E6E6"/>
<path d="M98.6302 129.341C98.6302 129.341 98.0143 131.411 99.3909 132.617C100.767 133.822 100.095 135.556 98.4956 134.95C96.8966 134.345 94.7334 130.123 94.7334 130.123L96.4049 128.053L98.6302 129.341Z" fill="#282F66"/>
<path d="M117.126 128.105C117.126 128.105 116.779 130.232 118.3 131.256C119.822 132.281 119.377 134.076 117.71 133.683C116.044 133.29 113.363 129.378 113.363 129.378L114.75 127.127L117.126 128.105Z" fill="#282F66"/>
<path d="M87.1935 32.1901C87.1935 32.1901 86.9917 36.1745 85.9619 38.7048C85.8621 38.9519 85.7141 39.1766 85.5266 39.3659C85.339 39.5552 85.1157 39.7053 84.8696 39.8074C84.6234 39.9095 84.3594 39.9616 84.0929 39.9606C83.8265 39.9597 83.5629 39.9057 83.3175 39.8018C82.0548 39.2844 80.4971 38.1718 80.347 36.0244L79.6432 32.4023C79.5841 31.6621 79.7565 30.9219 80.1367 30.2841C80.5168 29.6463 81.0858 29.1424 81.765 28.8422C84.2076 27.5382 87.4575 29.7684 87.1935 32.1901Z" fill="#F4A28C"/>
<path d="M79.8657 35.4912L81.6873 46.3525L89.0565 46.694L84.7716 38.2078L79.8657 35.4912Z" fill="#F4A28C"/>
<path d="M86.1842 32.216C84.9503 32.0984 83.7344 31.8361 82.5617 31.4347C82.8396 32.0228 82.9386 32.6795 82.8466 33.3234C82.7546 33.9673 82.4756 34.5701 82.0442 35.0569C81.637 35.5576 81.0611 35.8924 80.4244 35.9986C80.207 36.0223 79.9871 35.9953 79.7818 35.9199C79.5765 35.8444 79.3914 35.7225 79.2411 35.5637C79.0908 35.4048 78.9792 35.2134 78.9152 35.0043C78.8511 34.7952 78.8363 34.5741 78.8719 34.3583L79.436 30.6068C79.5223 29.8737 79.8062 29.1778 80.2574 28.5936C80.7086 28.0093 81.3101 27.5587 81.9976 27.2899C82.5875 27.0514 83.1926 26.8526 83.8089 26.6948C85.3614 26.3119 87.3589 27.5849 88.8079 26.7776C88.9536 26.6982 89.1174 26.6578 89.2833 26.6604C89.4493 26.6629 89.6117 26.7083 89.7549 26.7921C89.8981 26.876 90.0172 26.9954 90.1006 27.1388C90.1841 27.2823 90.229 27.4448 90.2311 27.6107C90.2311 29.1631 89.6359 31.5848 87.4262 32.1384C87.0196 32.2342 86.5996 32.2605 86.1842 32.216Z" fill="#24285B"/>
<path d="M82.5204 34.9892C82.5204 34.9892 82.7015 33.4679 81.5423 33.4369C80.3831 33.4058 80.1088 35.5946 81.6355 36.0241L82.5204 34.9892Z" fill="#F4A28C"/>
<path d="M86.9397 34.6943L87.8298 36.3709C87.8802 36.4646 87.9063 36.5695 87.9057 36.676C87.9051 36.7825 87.8778 36.8871 87.8264 36.9803C87.7749 37.0734 87.7008 37.1522 87.611 37.2094C87.5212 37.2665 87.4185 37.3003 87.3123 37.3075L85.7598 37.3851L86.9397 34.6943Z" fill="#F4A28C"/>
<path opacity="0.31" d="M85.3872 39.4813C84.5056 39.543 83.6238 39.3642 82.8359 38.9639C82.8359 38.9639 83.0481 41.8202 86.6189 41.934L85.3872 39.4813Z" fill="#CE8172"/>
<path d="M114.368 93.6113L119.765 102.015C121.185 104.224 122.08 106.728 122.381 109.337C122.683 111.945 122.383 114.588 121.504 117.062L117.597 128.068L113.545 127.189L114.684 116.239C114.855 114.577 114.614 112.897 113.982 111.349C113.351 109.801 112.347 108.433 111.061 107.365L102.854 100.509L109.064 93.6113H114.368Z" fill="#24285B"/>
<path d="M68.1963 56.1535C68.3162 53.2258 69.5838 50.463 71.725 48.4624C73.8662 46.4619 76.7088 45.3844 79.6382 45.463C87.0902 45.6441 98.0767 46.6117 104.965 50.4357C116.174 56.6451 114.28 92.2147 114.28 92.2147L90.2314 97.8704C90.2314 97.8704 67.5132 75.4131 68.1963 56.1535Z" fill="#282F66"/>
<path opacity="0.08" d="M78.8722 51.9258C78.8722 51.9258 89.0566 56.3759 93.3622 74.1762C97.616 91.8109 113.581 81.317 113.581 81.317L113.333 92.5509L90.2313 97.8703L85.2219 92.3594C85.2219 92.3594 70.085 75.6923 78.8722 51.9258Z" fill="black"/>
<path d="M90.2314 97.8698L95.8567 106.46C96.9349 108.106 97.6531 109.961 97.9643 111.904C98.2756 113.847 98.1728 115.834 97.6627 117.735L94.7596 128.508L99.2877 129.543L105.399 118.423C106.655 116.144 107.382 113.612 107.526 111.015C107.67 108.417 107.228 105.821 106.233 103.417L104.934 100.276L112.179 92.6953L90.2314 97.8698Z" fill="#24285B"/>
<path d="M130.178 80.7371L138.747 73.7515L130.012 63.0351C131.546 63.3455 133.138 63.1743 134.571 62.545C136.004 61.9156 137.207 60.8589 138.016 59.5194C138.825 58.18 139.201 56.6232 139.091 55.0622C138.981 53.5012 138.391 52.0124 137.403 50.7993C136.414 49.5863 135.075 48.7084 133.568 48.2859C132.061 47.8633 130.46 47.9168 128.985 48.4388C127.51 48.9609 126.232 49.9261 125.326 51.2023C124.421 52.4786 123.932 54.0034 123.926 55.5683L115.186 44.8467L86.2832 68.4114L109.845 97.311L118.415 90.3254C117.785 89.5532 117.314 88.6644 117.028 87.71C116.741 86.7556 116.646 85.7541 116.747 84.7629C116.951 82.7609 117.942 80.9219 119.502 79.6504C121.061 78.3789 123.062 77.7791 125.065 77.9829C127.067 78.1867 128.906 79.1774 130.178 80.7371Z" fill="#FFD200"/>
<path d="M54.0427 80.1425L48.6452 71.8633L38.2952 78.6368C38.7127 77.3014 38.7077 75.8698 38.281 74.5374C37.8542 73.205 37.0265 72.0369 35.911 71.1925C34.7954 70.3481 33.4463 69.8686 32.0479 69.8196C30.6496 69.7706 29.2703 70.1544 28.0983 70.9186C26.9263 71.6829 26.0188 72.7902 25.4999 74.0895C24.9809 75.3887 24.8757 76.8165 25.1986 78.1778C25.5216 79.539 26.2569 80.7674 27.3043 81.6951C28.3516 82.6229 29.6598 83.2047 31.0502 83.3611L20.7002 90.1397L38.9835 118.082L66.9285 99.8005L61.5102 91.5213C60.7627 92.0099 59.9262 92.3464 59.0486 92.5118C58.1709 92.6771 57.2693 92.668 56.3952 92.4849C55.5211 92.3019 54.6916 91.9484 53.9541 91.4448C53.2166 90.9412 52.5855 90.2973 52.0969 89.5498C51.6083 88.8023 51.2717 87.9659 51.1063 87.0884C50.941 86.2108 50.9501 85.3093 51.1332 84.4353C51.3163 83.5613 51.6697 82.7319 52.1734 81.9944C52.6771 81.257 53.321 80.626 54.0686 80.1374L54.0427 80.1425Z" fill="#E6E6E6"/>
<path d="M180.002 75.573C181.389 75.3043 182.658 74.6137 183.637 73.5958C184.616 72.5779 185.256 71.2825 185.471 69.8867C185.685 68.4909 185.463 67.063 184.834 65.7984C184.206 64.5338 183.202 63.4943 181.96 62.8221C180.718 62.1499 179.298 61.8779 177.896 62.0432C176.493 62.2086 175.176 62.8033 174.124 63.746C173.073 64.6886 172.338 65.9331 172.021 67.3092C171.704 68.6853 171.82 70.1257 172.353 71.4334L161.377 65.4724L156.601 74.269C157.435 74.667 158.179 75.2306 158.789 75.9255C159.398 76.6203 159.859 77.4319 160.145 78.3108C160.431 79.1897 160.534 80.1176 160.45 81.0378C160.365 81.9581 160.094 82.8515 159.653 83.6637C159.212 84.4759 158.611 85.1898 157.885 85.762C157.159 86.3343 156.324 86.7528 155.432 86.9922C154.539 87.2315 153.607 87.2867 152.692 87.1543C151.778 87.0219 150.899 86.7048 150.111 86.2221L145.304 95.0757L174.915 111.117L179.681 102.32C178.864 101.905 178.139 101.331 177.548 100.631C176.957 99.9305 176.512 99.1192 176.24 98.2444C175.968 97.3697 175.874 96.4493 175.963 95.5376C176.053 94.6258 176.324 93.7413 176.762 92.9362C177.199 92.1311 177.793 91.4218 178.509 90.8502C179.225 90.2785 180.048 89.8561 180.93 89.6079C181.812 89.3597 182.735 89.2908 183.644 89.4051C184.553 89.5195 185.429 89.8149 186.222 90.2738L190.989 81.4771L180.002 75.573Z" fill="#C9C9C9"/>
<path opacity="0.08" d="M96.7725 81.3066L117.674 81.7879C117.674 81.7879 115.051 85.7205 118.394 90.3258L109.824 97.3114L96.7725 81.3066Z" fill="black"/>
<path d="M67.6786 54.7147C66.5815 60.0031 65.6552 70.2952 72.2378 85.5652C73.1093 87.5674 74.5445 89.2728 76.3684 90.4737C78.1924 91.6745 80.3263 92.3189 82.5101 92.3282L113.327 92.5404L113.56 87.8161L85.1442 83.0866C85.1442 83.0866 86.2827 59.0044 78.3184 51.3358C74.7476 47.9051 68.6825 49.8662 67.6786 54.7147Z" fill="#282F66"/>
<path opacity="0.2" d="M67.6786 54.7147C66.5815 60.0031 65.6552 70.2952 72.2378 85.5652C73.1093 87.5674 74.5445 89.2728 76.3684 90.4737C78.1924 91.6745 80.3263 92.3189 82.5101 92.3282L113.327 92.5404L113.56 87.8161L85.1442 83.0866C85.1442 83.0866 86.2827 59.0044 78.3184 51.3358C74.7476 47.9051 68.6825 49.8662 67.6786 54.7147Z" fill="white"/>
<path d="M113.363 91.8415C113.363 91.8415 117.094 93.7302 118.994 91.9191C120.893 90.1081 119.082 88.8144 118.994 86.9154C119.014 86.6444 118.942 86.3745 118.79 86.1492C118.638 85.924 118.414 85.7564 118.155 85.6735C117.818 85.5717 117.455 85.5879 117.128 85.7196C116.8 85.8513 116.528 86.0905 116.354 86.398C115.837 87.2362 114.869 88.535 113.56 88.3177L113.363 91.8415Z" fill="#F4A28C"/>
<path d="M138.431 58.7715C138.431 58.7715 136.139 55.8996 133.603 58.7715C131.067 61.6433 136.315 65.814 138.431 58.7715Z" fill="#F4A28C"/>
<path opacity="0.08" d="M85.1443 83.097C83.3576 82.9738 81.5645 82.9738 79.7778 83.097C81.4686 82.239 83.277 81.6356 85.1443 81.3066V83.097Z" fill="black"/>
<path d="M68.1795 19.1348L70.5117 20.5977L71.9747 18.2657L69.6425 16.8028L68.1795 19.1348Z" fill="#C9C9C9"/>
<path d="M120.011 20.5977L122.049 22.6357L124.087 20.5977L122.049 18.5597L120.011 20.5977Z" fill="#E6E6E6"/>
<path d="M41.5554 51.8795L42.6001 56.4551L47.1761 55.4105L46.1314 50.8349L41.5554 51.8795Z" fill="#E6E6E6"/>
<path d="M155.012 44.3448V49.0381H159.705V44.3448H155.012Z" fill="#C9C9C9"/>
</svg>
