<svg width="571" height="424" viewBox="0 0 571 424" fill="none" xmlns="http://www.w3.org/2000/svg">
<path opacity="0.3" d="M413.39 93.7216C459.07 109.192 502.694 151.469 504.022 206.121C505.349 260.774 490.189 316.426 406.852 338C328.582 358.266 142.75 365.608 93.2157 297.693C46.5222 233.659 61.3824 129.711 142.978 96.464C200.207 73.1599 324.042 63.5823 413.39 93.7216Z" fill="#E6E6E6"/>
<path d="M437.7 125.675H133.314V315.483H437.7V125.675Z" fill="#282F66"/>
<path d="M411.277 144.31H159.708V296.848H411.277V144.31Z" fill="#24285B"/>
<path d="M454.616 315.483H119.282V343.021H454.616V315.483Z" fill="#282F66"/>
<path opacity="0.08" d="M454.616 315.483H119.282V343.021H454.616V315.483Z" fill="black"/>
<path d="M294.308 296.862L309.382 291.166L286.485 232.21L177.638 273.249L186.803 296.862H294.308Z" fill="#FFD200"/>
<path opacity="0.08" d="M294.307 296.862L309.382 291.166L258.634 276.512L239.12 270.872L228.4 287.904L222.775 296.862H294.307Z" fill="black"/>
<path opacity="0.08" d="M286.499 232.21L177.638 273.249L247.914 293.543L286.499 232.21Z" fill="black"/>
<path d="M322.49 136.586L208.885 165.637L225.095 227.167L338.7 198.117L322.49 136.586Z" fill="#FFD200"/>
<path opacity="0.08" d="M338.703 198.105L225.103 227.161L270.683 170.033L338.703 198.105Z" fill="black"/>
<path opacity="0.08" d="M322.487 136.575L208.886 165.631L276.921 193.703L322.487 136.575Z" fill="black"/>
<path d="M422.981 91.5235L315.651 44.7305L289.541 102.863L396.871 149.656L422.981 91.5235Z" fill="#FFD200"/>
<path opacity="0.08" d="M396.888 149.654L289.554 102.863L361.3 86.0142L396.888 149.654Z" fill="black"/>
<path opacity="0.08" d="M422.997 91.5133L315.663 44.7222L351.265 108.362L422.997 91.5133Z" fill="black"/>
<path opacity="0.08" d="M314.536 315.483H259.377V329.252H314.536V315.483Z" fill="black"/>
<path opacity="0.08" d="M370.808 184.561V197.866V261.702H437.686V197.866V184.561H370.808Z" fill="black"/>
<path d="M462.667 191.213H378.087V255.05H462.667V191.213Z" fill="#E6E6E6"/>
<path d="M462.667 177.909H378.087V191.213H462.667V177.909Z" fill="#B3B3B3"/>
<path d="M435.901 234.854H440.855C439.301 237.954 436.806 240.5 433.717 242.139C429.57 244.261 424.941 245.302 420.27 245.163C415.718 245.273 411.196 244.399 407.023 242.603C403.479 241.072 400.556 238.419 398.715 235.065C396.896 231.734 395.958 228.005 395.989 224.222C395.969 220.028 397.035 215.899 399.086 212.225C400.999 208.674 403.947 205.769 407.551 203.885C411.347 201.97 415.563 201.004 419.828 201.072C423.432 201.01 427.001 201.781 430.249 203.323C433.166 204.717 435.593 206.941 437.215 209.708C438.811 212.455 439.639 215.571 439.613 218.737C439.64 222.561 438.357 226.282 435.973 229.299C434.658 231.163 432.899 232.681 430.851 233.72C428.803 234.76 426.528 235.289 424.224 235.262C423.228 235.315 422.238 235.085 421.369 234.601C420.706 234.13 420.244 233.433 420.07 232.646C419.247 233.475 418.263 234.134 417.177 234.583C416.091 235.032 414.924 235.263 413.747 235.262C412.55 235.294 411.361 235.076 410.256 234.623C409.151 234.17 408.157 233.491 407.337 232.632C406.46 231.685 405.784 230.576 405.347 229.368C404.911 228.161 404.724 226.88 404.796 225.6C404.766 222.085 405.838 218.647 407.865 215.755C408.841 214.115 410.234 212.753 411.906 211.804C413.577 210.855 415.471 210.35 417.401 210.341C418.611 210.267 419.818 210.519 420.894 211.069C421.97 211.619 422.875 212.446 423.511 213.463L424.096 210.917H430.234L426.666 227.471C426.506 228.132 426.396 228.804 426.337 229.482C426.317 229.791 426.413 230.097 426.608 230.34C426.687 230.433 426.785 230.507 426.896 230.558C427.007 230.61 427.128 230.636 427.251 230.635C428.325 230.463 429.321 229.973 430.106 229.229C431.74 228.028 433.062 226.461 433.96 224.658C434.905 222.768 435.393 220.689 435.388 218.582C435.426 216.811 435.076 215.052 434.362 213.426C433.647 211.799 432.585 210.344 431.248 209.159C428.497 206.628 424.648 205.362 419.699 205.362C415.969 205.246 412.277 206.12 409.007 207.893C406.116 209.544 403.812 212.034 402.412 215.024C400.946 218.005 400.185 221.275 400.185 224.587C400.152 227.688 401.008 230.735 402.655 233.377C404.281 235.999 406.725 238.032 409.621 239.172C415.995 241.485 422.979 241.589 429.421 239.467C431.967 238.54 434.208 236.945 435.901 234.854ZM410.763 225.431C410.654 226.932 411.078 228.424 411.962 229.651C412.315 230.09 412.764 230.445 413.275 230.689C413.787 230.932 414.349 231.058 414.917 231.057C415.793 231.061 416.655 230.838 417.415 230.41C418.076 230.047 418.666 229.571 419.157 229.004C420.127 227.792 420.849 226.407 421.284 224.925C421.852 223.314 422.156 221.624 422.183 219.918C422.275 218.493 421.839 217.084 420.956 215.952C420.583 215.504 420.112 215.144 419.578 214.9C419.044 214.657 418.46 214.536 417.872 214.546C416.485 214.568 415.161 215.117 414.175 216.079C412.94 217.267 412.056 218.765 411.62 220.41C411.09 222.035 410.802 223.726 410.763 225.431Z" fill="#B3B3B3"/>
<path opacity="0.08" d="M176.796 184.209H133.171V233.18H176.796V184.209Z" fill="black"/>
<path d="M171.1 176.615H118.011V225.586H171.1V176.615Z" fill="#E6E6E6"/>
<path d="M155.769 196.839L144.549 185.419L133.329 196.839H138.468V216.796H150.63V196.839H155.769Z" fill="#B3B3B3"/>
</svg>
