<svg width="207" height="156" viewBox="0 0 207 156" fill="none" xmlns="http://www.w3.org/2000/svg">
<path opacity="0.3" d="M152.523 31.4757C169.895 36.4743 186.372 50.4093 186.724 68.5511C187.076 86.6929 181.156 105.218 149.366 112.607C119.506 119.546 48.7224 122.501 30.051 100.069C12.4457 78.9363 18.3762 44.3654 49.5504 33.1212C71.4148 25.2198 118.59 21.7114 152.523 31.4757Z" fill="#E6E6E6"/>
<path opacity="0.49" d="M75.6691 63.0509C75.6691 61.8405 75.1882 60.6797 74.3322 59.8238C73.4762 58.9679 72.3153 58.487 71.1047 58.487C70.8583 58.4886 70.6125 58.5111 70.3699 58.5543C69.8449 57.5743 69.0635 56.7552 68.1092 56.1847C67.1549 55.6142 66.0635 55.3136 64.9517 55.315H64.7291C64.8747 54.7363 64.9494 54.1421 64.9517 53.5454C64.901 51.6433 64.1097 49.8361 62.7464 48.5087C61.383 47.1813 59.5553 46.4385 57.6523 46.4385C55.7494 46.4385 53.9216 47.1813 52.5583 48.5087C51.1949 49.8361 50.4036 51.6433 50.353 53.5454C50.3552 54.1421 50.4299 54.7363 50.5755 55.315H50.353C49.5303 55.2912 48.7111 55.4326 47.9441 55.7309C47.177 56.0292 46.4776 56.4784 45.8872 57.0518C45.2969 57.6253 44.8276 58.3113 44.5071 59.0693C44.1866 59.8274 44.0215 60.642 44.0215 61.4649C44.0215 62.2879 44.1866 63.1025 44.5071 63.8606C44.8276 64.6186 45.2969 65.3046 45.8872 65.878C46.4776 66.4515 47.177 66.9006 47.9441 67.199C48.7111 67.4973 49.5303 67.6387 50.353 67.6148H71.6999V67.5735C72.7974 67.4291 73.8052 66.8909 74.5354 66.0589C75.2656 65.2269 75.6685 64.1579 75.6691 63.0509Z" fill="#E6E6E6"/>
<path opacity="0.49" d="M168.891 80.1522C168.891 79.7871 168.82 79.4254 168.681 79.088C168.541 78.7506 168.337 78.444 168.078 78.1858C167.82 77.9276 167.514 77.723 167.176 77.5836C166.839 77.4442 166.477 77.3728 166.112 77.3735C165.963 77.375 165.814 77.3871 165.667 77.4097C165.347 76.8138 164.871 76.3158 164.291 75.9687C163.71 75.6215 163.047 75.4382 162.37 75.4382H162.231C162.322 75.0867 162.369 74.7251 162.37 74.3619C162.37 73.183 161.902 72.0525 161.068 71.2189C160.235 70.3853 159.104 69.917 157.925 69.917C156.746 69.917 155.615 70.3853 154.782 71.2189C153.948 72.0525 153.48 73.183 153.48 74.3619C153.482 74.7247 153.527 75.086 153.614 75.4382H153.48C152.976 75.4195 152.474 75.5024 152.004 75.6822C151.533 75.8619 151.104 76.1346 150.741 76.4841C150.378 76.8336 150.09 77.2526 149.892 77.7162C149.695 78.1797 149.594 78.6783 149.594 79.1819C149.594 79.6856 149.695 80.1842 149.892 80.6477C150.09 81.1113 150.378 81.5303 150.741 81.8798C151.104 82.2293 151.533 82.502 152.004 82.6817C152.474 82.8614 152.976 82.9444 153.48 82.9257H166.474V82.8998C167.142 82.8132 167.755 82.4866 168.2 81.981C168.645 81.4755 168.89 80.8254 168.891 80.1522Z" fill="#E6E6E6"/>
<path opacity="0.49" d="M88.4457 41.5302C88.4457 40.8193 88.7281 40.1375 89.2308 39.6349C89.7335 39.1322 90.4154 38.8498 91.1263 38.8498C91.2705 38.8505 91.4142 38.8644 91.5558 38.8912C91.8655 38.3165 92.3247 37.8361 92.8849 37.5009C93.4452 37.1657 94.0856 36.9882 94.7385 36.987H94.873C94.7836 36.6493 94.7383 36.3014 94.7385 35.9521C94.7341 35.3421 94.8599 34.7383 95.1074 34.1808C95.355 33.6233 95.7186 33.1251 96.1739 32.7192C96.6293 32.3134 97.166 32.0093 97.7483 31.8273C98.3305 31.6453 98.9448 31.5895 99.5503 31.6637C100.156 31.7379 100.738 31.9403 101.259 32.2575C101.781 32.5747 102.228 32.9994 102.572 33.5032C102.916 34.007 103.148 34.5783 103.254 35.179C103.359 35.7798 103.336 36.3961 103.184 36.987H103.319C104.279 36.987 105.201 37.3686 105.88 38.0479C106.559 38.7272 106.941 39.6485 106.941 40.6091C106.941 41.5698 106.559 42.4911 105.88 43.1704C105.201 43.8497 104.279 44.2313 103.319 44.2313H90.7744C90.1225 44.1451 89.525 43.8222 89.0956 43.3242C88.6662 42.8261 88.4349 42.1877 88.4457 41.5302Z" fill="#E6E6E6"/>
<path d="M90.23 85.3007L89.5654 85.2373L88.7987 93.2731L89.4632 93.3365L90.23 85.3007Z" fill="#24285B"/>
<path d="M96.4469 86.6359L83.2041 85.3733L90.092 83.2207L96.4469 86.6359Z" fill="#FFD200"/>
<path d="M75.8903 84.9196L75.2295 85.0146L76.3795 93.0045L77.0403 92.9094L75.8903 84.9196Z" fill="#24285B"/>
<path d="M82.2516 84.7472L69.0864 86.6462L75.2705 82.9258L82.2516 84.7472Z" fill="#FFD200"/>
<path d="M61.6873 86.2866L61.02 86.3057L61.2511 94.3746L61.9184 94.3555L61.6873 86.2866Z" fill="#24285B"/>
<path d="M68.0202 86.8433L54.7256 87.2211L61.2927 84.2354L68.0202 86.8433Z" fill="#FFD200"/>
<path d="M98.8428 64.6654C99.7764 64.2513 100.785 64.0343 101.807 64.028C102.828 64.0218 103.84 64.2265 104.779 64.6292C104.174 63.7708 103.768 62.789 103.589 61.7546C103.41 60.7202 103.463 59.659 103.744 58.6475C107.402 60.4741 108.039 63.822 108.075 65.7883C108.18 64.2807 108.763 62.846 109.74 61.6922C110.716 60.5384 112.034 59.7257 113.504 59.3719C113.586 60.5737 113.378 61.7776 112.898 62.8825C112.418 63.9873 111.68 64.9608 110.745 65.721C114.425 64.5826 117.69 66.8128 117.69 66.8128C114.026 69.7727 111.242 68.5929 109.612 67.7287C110.885 69.2345 113.038 73.2189 114.269 78.3261C114.735 80.2614 114.787 83.1643 114.823 86.1189H111.454C111.454 80.6339 110.844 73.1206 107.718 67.9047C104.799 72.9602 99.826 71.5941 99.826 71.5941C100.517 69.903 101.807 68.5253 103.449 67.7235C102.516 67.5463 101.628 67.1845 100.837 66.6593C100.046 66.1342 99.368 65.4562 98.8428 64.6654Z" fill="#E6E6E6"/>
<path d="M140.569 69.7774C139.752 69.1658 138.817 68.7293 137.823 68.4952C136.829 68.261 135.798 68.2342 134.794 68.4165C135.574 67.7125 136.189 66.8445 136.595 65.8747C137 64.9049 137.185 63.8574 137.138 62.8074C133.163 63.7698 131.787 66.9056 131.311 68.7994C131.549 67.3068 131.305 65.7773 130.614 64.4327C129.924 63.0882 128.823 61.9986 127.471 61.3223C127.114 62.481 127.043 63.7088 127.264 64.9009C127.485 66.093 127.991 67.214 128.739 68.1681C125.406 66.2329 121.727 67.6766 121.727 67.6766C124.63 71.3815 127.937 71.2004 129.717 70.7192C126.711 73.0335 124.275 76.0055 122.596 79.4072C121.706 81.1872 120.857 84.2557 120.185 87.1327L123.471 87.8882C124.671 82.5326 126.979 75.3555 131.197 70.9727C132.905 76.556 138.059 76.3387 138.059 76.3387C137.766 74.537 136.819 72.9066 135.399 71.7593C136.349 71.7899 137.296 71.6304 138.184 71.2901C139.072 70.9498 139.883 70.4355 140.569 69.7774Z" fill="#E6E6E6"/>
<path d="M94.0449 97.6634C94.0449 88.8667 104.172 81.7725 116.67 81.7725C129.168 81.7725 139.295 88.8667 139.295 97.6634H94.0449Z" fill="#E6E6E6"/>
<path opacity="0.09" d="M94.0449 97.6634C94.0449 88.8667 104.172 81.7725 116.67 81.7725C129.168 81.7725 139.295 88.8667 139.295 97.6634H94.0449Z" fill="black"/>
<path d="M44.5308 101.114C44.5308 95.3035 58.4722 90.5947 75.6687 90.5947C92.8653 90.5947 106.807 95.3035 106.807 101.114H44.5308Z" fill="#E6E6E6"/>
<path d="M169.373 96.3594H44.6966C43.1471 96.3594 41.661 96.9749 40.5653 98.0705C39.4696 99.1661 38.8541 100.652 38.8541 102.201C38.8541 103.751 39.4696 105.237 40.5653 106.332C41.661 107.428 43.1471 108.043 44.6966 108.043H37.3016C35.752 108.043 34.2659 108.659 33.1702 109.755C32.0745 110.85 31.459 112.336 31.459 113.885C31.459 115.435 32.0745 116.921 33.1702 118.016C34.2659 119.112 35.752 119.727 37.3016 119.727H45.2141C44.1582 120.413 43.3523 121.422 42.9166 122.603C42.481 123.784 42.4391 125.075 42.797 126.282C43.155 127.489 43.8937 128.548 44.9029 129.301C45.9121 130.054 47.1376 130.46 48.3968 130.459H133.96C135.219 130.459 136.444 130.052 137.452 129.298C138.46 128.545 139.198 127.486 139.556 126.279C139.913 125.073 139.87 123.783 139.435 122.602C138.999 121.421 138.193 120.413 137.138 119.727H161.978C163.527 119.727 165.013 119.112 166.109 118.016C167.205 116.921 167.82 115.435 167.82 113.885C167.82 112.336 167.205 110.85 166.109 109.755C165.013 108.659 163.527 108.043 161.978 108.043H169.378C170.927 108.043 172.414 107.428 173.509 106.332C174.605 105.237 175.22 103.751 175.22 102.201C175.22 100.652 174.605 99.1661 173.509 98.0705C172.414 96.9749 170.927 96.3594 169.378 96.3594H169.373Z" fill="#282F66"/>
<path d="M150.298 58.2591C156.926 58.2591 162.299 52.8867 162.299 46.2595C162.299 39.6322 156.926 34.2598 150.298 34.2598C143.67 34.2598 138.297 39.6322 138.297 46.2595C138.297 52.8867 143.67 58.2591 150.298 58.2591Z" fill="#FFD200"/>
<path d="M153.31 98.3096H140.326C139.614 98.3096 139.037 98.8864 139.037 99.598C139.037 100.31 139.614 100.886 140.326 100.886H153.31C154.021 100.886 154.598 100.31 154.598 99.598C154.598 98.8864 154.021 98.3096 153.31 98.3096Z" fill="#FFD200"/>
<path d="M151.037 102.118H138.053C137.342 102.118 136.765 102.695 136.765 103.407C136.765 104.118 137.342 104.695 138.053 104.695H151.037C151.749 104.695 152.326 104.118 152.326 103.407C152.326 102.695 151.749 102.118 151.037 102.118Z" fill="#FFD200"/>
<path opacity="0.44" d="M86.976 115.298H64.5579C63.7433 115.298 63.083 115.958 63.083 116.773C63.083 117.587 63.7433 118.247 64.5579 118.247H86.976C87.7905 118.247 88.4509 117.587 88.4509 116.773C88.4509 115.958 87.7905 115.298 86.976 115.298Z" fill="white"/>
<path opacity="0.44" d="M109.984 107.029H87.5657C86.7511 107.029 86.0908 107.69 86.0908 108.504C86.0908 109.319 86.7511 109.979 87.5657 109.979H109.984C110.798 109.979 111.459 109.319 111.459 108.504C111.459 107.69 110.798 107.029 109.984 107.029Z" fill="white"/>
<path opacity="0.44" d="M124.407 119.908H110.233C109.418 119.908 108.758 120.568 108.758 121.383C108.758 122.197 109.418 122.858 110.233 122.858H124.407C125.222 122.858 125.882 122.197 125.882 121.383C125.882 120.568 125.222 119.908 124.407 119.908Z" fill="white"/>
<path opacity="0.44" d="M127.461 98.1758H113.286C112.472 98.1758 111.812 98.836 111.812 99.6505C111.812 100.465 112.472 101.125 113.286 101.125H127.461C128.275 101.125 128.936 100.465 128.936 99.6505C128.936 98.836 128.275 98.1758 127.461 98.1758Z" fill="white"/>
<path opacity="0.44" d="M73.3505 101.932H50.9324C50.1178 101.932 49.4575 102.592 49.4575 103.406C49.4575 104.221 50.1178 104.881 50.9324 104.881H73.3505C74.165 104.881 74.8254 104.221 74.8254 103.406C74.8254 102.592 74.165 101.932 73.3505 101.932Z" fill="white"/>
<path d="M154.241 105.927H145.226C144.514 105.927 143.938 106.504 143.938 107.215C143.938 107.927 144.514 108.504 145.226 108.504H154.241C154.953 108.504 155.529 107.927 155.529 107.215C155.529 106.504 154.953 105.927 154.241 105.927Z" fill="#FFD200"/>
</svg>
