<svg width="629" height="474" viewBox="0 0 629 474" fill="none" xmlns="http://www.w3.org/2000/svg">
<path opacity="0.45" d="M313.729 415.262C430.156 415.262 524.539 408.329 524.539 399.776C524.539 391.223 430.156 384.289 313.729 384.289C197.302 384.289 102.92 391.223 102.92 399.776C102.92 408.329 197.302 415.262 313.729 415.262Z" fill="#E6E6E6"/>
<path d="M324.485 69.0986L322.473 113.122C316.607 124.128 314.909 125.951 312.817 126.344V139.52C317.991 140.778 322.583 141.092 325.287 139.52C334.722 133.86 341.232 105.103 341.232 105.103L324.485 69.0986Z" fill="#282F66"/>
<path d="M491.013 117.157L143.916 118.005L144.532 370.178L491.629 369.33L491.013 117.157Z" fill="#F2F2F2"/>
<path d="M491.123 117.571H143.899V167.223H491.123V117.571Z" fill="#E6E6E6"/>
<path d="M175.051 149.473C178.525 149.473 181.341 146.657 181.341 143.184C181.341 139.71 178.525 136.895 175.051 136.895C171.577 136.895 168.761 139.71 168.761 143.184C168.761 146.657 171.577 149.473 175.051 149.473Z" fill="#24285B"/>
<path d="M193.764 149.426C197.238 149.426 200.054 146.61 200.054 143.137C200.054 139.663 197.238 136.848 193.764 136.848C190.29 136.848 187.474 139.663 187.474 143.137C187.474 146.61 190.29 149.426 193.764 149.426Z" fill="#282F66"/>
<path d="M211.392 149.378C214.865 149.378 217.682 146.562 217.682 143.089C217.682 139.615 214.865 136.8 211.392 136.8C207.918 136.8 205.102 139.615 205.102 143.089C205.102 146.562 207.918 149.378 211.392 149.378Z" fill="#FFD200"/>
<path d="M451.386 286.856H302.58V296.117H451.386V286.856Z" fill="#E6E6E6"/>
<path d="M451.386 311.384H302.58V320.644H451.386V311.384Z" fill="#E6E6E6"/>
<path d="M405.972 335.91H302.58V345.171H405.972V335.91Z" fill="#E6E6E6"/>
<path d="M447.533 184.785H302.58V271.574H447.533V184.785Z" fill="#E6E6E6"/>
<path opacity="0.17" d="M285.897 183.999H175.303V215.193H285.897V183.999Z" fill="#666666"/>
<path d="M285.897 228.18H175.303V259.373H285.897V228.18Z" fill="#E6E6E6"/>
<path opacity="0.17" d="M194.566 255.144C200.766 255.144 205.793 250.118 205.793 243.918C205.793 237.718 200.766 232.692 194.566 232.692C188.365 232.692 183.338 237.718 183.338 243.918C183.338 250.118 188.365 255.144 194.566 255.144Z" fill="#666666"/>
<path opacity="0.17" d="M258.865 236.938H214.253V241.874H258.865V236.938Z" fill="#666666"/>
<path opacity="0.17" d="M242.212 246.811H214.253V251.747H242.212V246.811Z" fill="#666666"/>
<path d="M285.897 272.376H175.303V303.57H285.897V272.376Z" fill="#E6E6E6"/>
<path opacity="0.17" d="M194.566 299.34C200.766 299.34 205.793 294.313 205.793 288.114C205.793 281.914 200.766 276.888 194.566 276.888C188.365 276.888 183.338 281.914 183.338 288.114C183.338 294.313 188.365 299.34 194.566 299.34Z" fill="#666666"/>
<path opacity="0.17" d="M258.865 281.117H214.253V286.054H258.865V281.117Z" fill="#666666"/>
<path opacity="0.17" d="M242.212 291.007H214.253V295.944H242.212V291.007Z" fill="#666666"/>
<path d="M285.897 316.556H175.303V347.749H285.897V316.556Z" fill="#E6E6E6"/>
<path opacity="0.17" d="M194.566 343.52C200.766 343.52 205.793 338.494 205.793 332.294C205.793 326.094 200.766 321.068 194.566 321.068C188.365 321.068 183.338 326.094 183.338 332.294C183.338 338.494 188.365 343.52 194.566 343.52Z" fill="#666666"/>
<path opacity="0.17" d="M258.865 325.313H214.253V330.25H258.865V325.313Z" fill="#666666"/>
<path opacity="0.17" d="M242.212 335.188H214.253V340.124H242.212V335.188Z" fill="#666666"/>
<path opacity="0.08" d="M181.341 370.076C181.876 370.076 169.075 300.566 173.337 291.007C177.598 281.448 187.725 272.14 187.489 264.452C187.253 256.763 217.162 234.06 223.657 215.193L229.475 224.391L290.095 173.198C290.095 173.198 300.426 171.72 303.791 164.22C307.157 156.721 338.654 117.509 338.654 117.509H321.797L302.769 142.35L289.875 136.895L221.015 188.779L217.068 204.03C217.068 204.03 167.817 239.359 151.558 258.021C135.298 276.684 156.983 370.06 156.983 370.06L181.341 370.076Z" fill="black"/>
<path d="M286.628 125.538L212.41 187.015L230.528 208.881L304.746 147.404L286.628 125.538Z" fill="#24285B"/>
<path d="M235.057 197.097C240.702 197.097 245.278 192.521 245.278 186.877C245.278 181.233 240.702 176.657 235.057 176.657C229.412 176.657 224.836 181.233 224.836 186.877C224.836 192.521 229.412 197.097 235.057 197.097Z" fill="#FFD200"/>
<path opacity="0.17" d="M276.07 144.621L244.804 170.52L247.673 173.982L278.939 148.084L276.07 144.621Z" fill="white"/>
<path opacity="0.17" d="M270.132 161.213L250.539 177.442L253.408 180.905L273.001 164.676L270.132 161.213Z" fill="white"/>
<path d="M125.878 314.276L115.61 347.058C114.23 351.5 111.945 355.609 108.901 359.126C105.857 362.644 102.118 365.494 97.9192 367.497L82.8232 374.667L83.4365 379.132L105.986 374.258C111.299 372.695 116.226 370.039 120.45 366.459C124.675 362.88 128.104 358.456 130.517 353.473L146.447 320.675L125.878 314.276Z" fill="#F4A28C"/>
<path d="M159.907 323.521L164.719 393.833L160.238 395.389L142.39 329.622L159.907 323.521Z" fill="#F4A28C"/>
<path d="M165.647 395.043C165.647 395.043 166.685 399.209 169.83 400.514C172.975 401.819 171.402 406.347 166.685 403.58C165.216 402.73 163.822 401.757 162.517 400.672C161.291 399.707 159.832 399.084 158.287 398.863C158 398.788 157.739 398.633 157.536 398.416C157.333 398.199 157.195 397.929 157.14 397.637C156.511 395.342 161.731 393.172 161.731 393.172L165.647 395.043Z" fill="#282F66"/>
<path d="M83.4368 379.085C83.4368 379.085 80.2918 381.506 80.2918 384.682C80.2918 387.858 75.8888 388.251 76.4392 383.11C76.6058 381.517 76.9003 379.939 77.3198 378.393C77.6793 376.976 77.6522 375.489 77.2412 374.085C77.1824 373.811 77.2097 373.524 77.3194 373.265C77.4291 373.007 77.616 372.788 77.8545 372.639C79.5685 371.224 83.4368 374.84 83.4368 374.84V379.085Z" fill="#282F66"/>
<path d="M132.986 221.623L134.669 228.384L129.181 231.277L128.222 219.705L132.986 221.623Z" fill="#F4A28C"/>
<path d="M126.932 213.196C127.254 212.589 127.724 212.073 128.297 211.694C128.87 211.315 129.529 211.086 130.213 211.026C130.898 210.967 131.586 211.08 132.216 211.354C132.846 211.629 133.397 212.056 133.819 212.598C135.848 215.145 138.222 219.123 135.03 220.931C130.14 223.698 126.366 217.504 126.366 217.504C126.121 216.043 126.318 214.543 126.932 213.196Z" fill="#F4A28C"/>
<path d="M104.414 242.833C104.414 242.833 80.8262 279.734 85.5437 285.174C100.545 302.469 133.851 263.571 133.851 263.571L104.414 242.833Z" fill="#F4A28C"/>
<path d="M157.817 237.315C151.041 232.37 142.905 229.636 134.518 229.487C126.131 229.338 117.903 231.781 110.956 236.482C104.776 240.679 99.9485 246.968 102.197 256.056C107.308 277.392 123.662 291.448 124.212 310.22L162.911 307.626V283.461C162.902 281.177 163.367 278.917 164.277 276.822C165.186 274.727 166.52 272.844 168.195 271.291C171.56 268.147 174.925 263.1 172.629 256.15C170.538 249.956 165.254 242.771 157.817 237.315Z" fill="#282F66"/>
<path d="M129.998 217.504C129.998 217.504 128.898 216.419 128.237 217.787C127.577 219.155 129.637 220.004 130.313 219.359C130.989 218.714 129.998 217.504 129.998 217.504Z" fill="#F4A28C"/>
<path opacity="0.08" d="M138.663 247.377C138.663 247.377 130.297 263.351 140 278.932C149.702 294.513 131.319 309.733 131.319 309.733L162.864 307.626V293.853L138.663 247.377Z" fill="black"/>
<path d="M122.545 237.802C123.284 234.909 126.728 229.658 121.885 220.193C121.162 218.631 120.796 216.927 120.812 215.206C120.828 213.485 121.227 211.789 121.979 210.241C126.586 202.474 134.009 205.131 133.128 209.486C132.247 213.841 131.556 215.916 131.556 215.916C131.556 215.916 145.614 225.995 143.554 233.416C141.808 240.019 119.416 249.846 122.545 237.802Z" fill="#24285B"/>
<path d="M122.466 300.346H162.864L169.295 356.239L109.367 353.535L122.466 300.346Z" fill="#24285B"/>
<path d="M135.644 257.188C135.032 255.815 134.699 254.334 134.664 252.832C134.629 251.33 134.893 249.835 135.44 248.436C135.987 247.036 136.807 245.759 137.851 244.678C138.896 243.598 140.145 242.735 141.525 242.141C144.267 241.01 147.09 240.086 149.969 239.374C167.173 234.972 197.05 223.007 214.599 199.958C214.599 199.958 219.663 191.137 226.786 193.48C233.909 195.822 228.956 204.108 221.786 202.033C221.786 202.033 200.352 256.653 151.353 265.646C148.163 266.202 144.879 265.67 142.028 264.136C139.176 262.602 136.923 260.155 135.628 257.188H135.644Z" fill="#F4A28C"/>
<path d="M306.968 55.0273L326.53 62.8572L326.294 77.2905L309.248 63.4232L306.968 55.0273Z" fill="#F4A28C"/>
<path opacity="0.31" d="M311.827 65.7029C312.255 64.2773 312.255 62.7576 311.827 61.332C314.194 63.2586 315.74 66.0126 316.152 69.0361L311.827 65.7029Z" fill="#CE8172"/>
<path d="M300.693 62.1964C303.28 64.6731 306.189 66.7886 309.342 68.4854C309.724 68.6738 310.141 68.7826 310.567 68.8051C310.992 68.8276 311.418 68.7634 311.818 68.6163C312.218 68.4693 312.584 68.2425 312.894 67.9497C313.203 67.6569 313.45 67.3043 313.619 66.9131C314.261 65.6994 314.536 64.3259 314.414 62.9587C314.291 61.5916 313.775 60.2892 312.927 59.2091L309.782 54.1936C309.043 53.2542 308.029 52.569 306.882 52.2335C305.735 51.8981 304.511 51.9293 303.382 52.3226C299.027 53.4389 297.721 59.6179 300.693 62.1964Z" fill="#F4A28C"/>
<path d="M303.76 64.8379L304.577 67.778C304.624 67.9454 304.711 68.0986 304.832 68.2234C304.953 68.3482 305.103 68.4406 305.269 68.4922C305.435 68.5439 305.611 68.5531 305.782 68.5189C305.952 68.4848 306.111 68.4084 306.244 68.2969L308.131 66.7246L303.76 64.8379Z" fill="#F4A28C"/>
<path d="M315.255 57.8419L309.279 51.4743C309.279 51.4743 311.166 46.899 307.707 46.443C304.247 45.9871 304.986 48.77 301.857 46.899C298.728 45.028 296.51 47.1348 297.139 50.0435C297.768 52.9522 295.85 50.5623 294.136 52.5748C292.422 54.5873 293.019 55.8137 294.686 56.93C296.353 58.0463 292.532 60.0745 294.152 62.2756C295.771 64.4768 297.768 65.8761 301.59 60.5462C305.411 55.2162 307.439 62.0084 315.255 57.8419Z" fill="#FFD200"/>
<path d="M309.264 60.2938C309.264 60.2938 307.361 58.7216 308.666 57.3851C309.972 56.0487 312.739 58.3285 311.418 60.5297L309.264 60.2938Z" fill="#F4A28C"/>
<path opacity="0.08" d="M377.667 121.141C377.667 121.141 369.38 142.649 378.784 153.45C388.187 164.252 409.196 174.692 409.196 174.692C409.196 174.692 411.885 187.27 418.537 175.839L417.247 169.645L397.575 154.677L384.995 138.781L393.109 121.487L377.667 121.141Z" fill="black"/>
<path d="M404.62 94.3496L393.125 109.066L385.436 119.081C380.966 119.753 376.444 120.001 371.928 119.82C358.593 119.348 339 115.103 330.461 96.0476C327.93 90.1219 326.523 83.7776 326.31 77.3378L326.53 62.9202C326.53 62.9202 348.073 47.1977 367.415 60.3103C386.756 73.4229 404.62 94.3496 404.62 94.3496Z" fill="#282F66"/>
<path d="M404.62 94.3496C404.62 94.3496 426.148 108.72 414.605 118.609C408.736 123.838 403.396 129.631 398.66 135.904C397.463 137.457 396.869 139.39 396.988 141.347C397.106 143.304 397.929 145.152 399.305 146.548L415.313 162.853L412.53 170.321L388.942 155.369C385.228 153.007 382.412 149.469 380.947 145.318C379.482 141.168 379.451 136.647 380.86 132.477L385.436 119.081L404.62 94.3496Z" fill="#24285B"/>
<path opacity="0.08" d="M393.125 109.066L385.436 119.081C385.436 119.081 379.822 119.458 371.928 119.82C358.593 119.348 339 115.103 330.461 96.0475C337.38 86.614 346.485 77.715 350.762 76.7402C350.762 76.7402 358.782 99.365 370.764 103.123C382.463 106.802 392.685 109.019 393.172 109.129L393.125 109.066Z" fill="black"/>
<path d="M351.454 80.7337C353.026 67.4953 335.933 60.8289 327.74 71.3001C325.3 74.4064 323.475 77.9497 322.362 81.7399C318.18 95.8902 292.092 153.529 292.092 153.529L300.945 157.853C300.945 157.853 334.109 116.408 347.019 93.5947C349.334 89.6435 350.842 85.2719 351.454 80.7337Z" fill="#282F66"/>
<path opacity="0.36" d="M351.454 80.7337C353.026 67.4953 335.933 60.8289 327.74 71.3001C325.3 74.4064 323.475 77.9497 322.362 81.7399C318.18 95.8902 292.092 153.529 292.092 153.529L300.945 157.853C300.945 157.853 334.109 116.408 347.019 93.5947C349.334 89.6435 350.842 85.2719 351.454 80.7337Z" fill="white"/>
<path d="M293.491 154.236C293.491 154.236 283.726 159.739 289.214 163.371C294.702 167.003 300.882 157.853 300.882 157.853L293.491 154.236Z" fill="#F4A28C"/>
<path d="M413.19 168.465C413.19 168.465 417.735 173.182 416.131 176.232C416.131 176.232 419.276 179.581 421.729 175.179C424.182 170.776 419.905 165.745 419.905 165.745L414.826 164.016L413.19 168.465Z" fill="#282F66"/>
<path opacity="0.08" d="M454.028 325.565C450.883 333.72 448.047 341.979 445.521 350.344C445.018 352.01 442.863 362.293 441.055 369.101H462.017C463.417 353.251 469.073 338.074 478.386 325.172C478.591 340.36 479.157 356.617 487.727 369.101H497.303C499.266 366.775 500.434 363.883 500.637 360.846C500.745 356.683 500.253 352.527 499.175 348.504C496.58 335.991 495.242 323.25 495.181 310.471C495.181 294.387 497.052 278.272 495.668 262.235C494.835 252.722 492.523 242.597 485.242 236.324C484.938 236.052 484.612 235.804 484.267 235.585C484.991 229.925 485.352 224.202 485.683 218.526L486.689 201.986C487.035 196.373 483.874 187.238 477.396 193.543C472.112 198.668 473.952 204.549 472.678 210.665C470.665 220.224 458.824 218.982 451.355 218.652C427.767 217.598 403.928 218.196 380.246 218.196H324.596V321.131H455.852C455.223 322.609 454.594 324.087 454.028 325.565Z" fill="black"/>
<path d="M448.539 390.405C448.539 390.405 445.064 393.833 441.306 392.213C437.548 390.594 434.812 393.786 437.579 396.506C440.347 399.226 450.82 399.32 450.82 399.32L453.886 392.229L448.539 390.405Z" fill="#282F66"/>
<path d="M506.896 388.817C506.896 388.817 508.594 393.534 505.764 396.553C502.933 399.571 504.694 403.471 508.122 401.804C511.55 400.137 515.592 389.949 515.592 389.949L510.513 384.289L506.896 388.817Z" fill="#282F66"/>
<path d="M516.188 301.038C516.188 301.038 519.852 316.289 513.484 323.789C507.115 331.288 497.366 366.821 513.484 384.588L507.115 390.877C507.115 390.877 479.203 375.878 487.16 321.792L467.221 301.022L516.188 301.038Z" fill="#24285B"/>
<path d="M467.221 301.038L446.778 390.892L457.015 392.465C457.015 392.465 477.458 330.879 490.997 318.239L467.221 301.038Z" fill="#24285B"/>
<path d="M462.472 222.032C462.472 222.032 441.118 231.136 444.389 264.483L465.24 262.706L462.472 222.032Z" fill="#282F66"/>
<path opacity="0.36" d="M462.472 222.032C462.472 222.032 441.118 231.136 444.389 264.483L465.24 262.706L462.472 222.032Z" fill="white"/>
<path d="M492.46 197.064L491.642 218.73L479.738 217.425L485.101 202.19L492.46 197.064Z" fill="#F4A28C"/>
<path opacity="0.31" d="M483.795 205.555C485.334 205.458 486.81 204.911 488.041 203.982C486.987 206.94 484.852 209.39 482.065 210.837L483.795 205.555Z" fill="#CE8172"/>
<path d="M490.62 214.344L483.669 215.79C483.669 215.79 451.842 219.218 450.553 237.173C449.263 255.128 467.237 301.038 467.237 301.038H515.465C515.465 301.038 554.07 209.596 490.62 214.344Z" fill="#282F66"/>
<path d="M480.713 193.889C479.891 197.497 479.563 201.199 479.738 204.895C479.837 205.772 480.28 206.575 480.97 207.126C481.659 207.677 482.54 207.932 483.418 207.835C484.833 207.755 486.195 207.267 487.339 206.43C488.483 205.593 489.36 204.443 489.865 203.118L492.617 197.663C493.052 196.513 493.121 195.256 492.814 194.066C492.508 192.875 491.84 191.808 490.903 191.012C487.569 187.82 481.405 189.911 480.713 193.889Z" fill="#F4A28C"/>
<path opacity="0.09" d="M504.772 222.708C504.772 222.708 488.34 232.283 492.192 253.964C496.045 275.646 502.382 283.098 488.78 280.08C475.178 277.061 469.58 270.222 469.58 270.222C469.58 270.222 459.783 278.209 469.58 284.262C479.376 290.315 492.664 290.315 494.74 301.038H515.434C515.434 301.038 517.101 296.321 519.318 290.425C521.535 284.529 504.772 222.708 504.772 222.708Z" fill="black"/>
<path d="M482.302 194.392C484.314 194.753 486.361 194.879 488.403 194.769C487.696 195.578 487.24 196.576 487.092 197.64C486.944 198.704 487.11 199.788 487.569 200.759C487.998 201.709 488.744 202.48 489.68 202.939C490.616 203.398 491.682 203.517 492.696 203.275L493.765 194.848C493.961 193.646 493.826 192.414 493.374 191.284C492.923 190.154 492.172 189.168 491.202 188.433C490.368 187.789 489.497 187.195 488.592 186.656C487.315 185.944 485.867 185.596 484.406 185.649C482.945 185.701 481.527 186.153 480.305 186.955C479.392 187.733 478.822 188.839 478.719 190.034C478.616 191.228 478.988 192.416 479.754 193.338C480.479 193.935 481.367 194.302 482.302 194.392Z" fill="#24285B"/>
<path d="M486.894 200.477C486.894 200.477 487.302 197.945 489.174 198.417C491.045 198.889 490.479 202.505 487.853 202.489L486.894 200.477Z" fill="#F4A28C"/>
<path d="M473.716 208.196H333.842V310.613H473.716V208.196Z" fill="#FFD200"/>
<path opacity="0.43" d="M462.173 217.74H345.399V301.07H462.173V217.74Z" fill="white"/>
<path opacity="0.49" d="M346.736 301.07L378.517 242.314L405.501 287.878L429.78 259.405L462.158 301.07H346.736Z" fill="white"/>
<path d="M407.671 253.556C412.847 253.556 417.043 249.36 417.043 244.185C417.043 239.01 412.847 234.814 407.671 234.814C402.495 234.814 398.299 239.01 398.299 244.185C398.299 249.36 402.495 253.556 407.671 253.556Z" fill="white"/>
<path d="M530.278 261.024C530.278 261.024 532.999 288.868 519.271 290.425C508.955 291.588 492.413 285.708 482.301 282.894C477.93 281.636 475.807 281.054 472.442 277.988C468.416 274.309 462.818 271.699 467.158 268.193C474.879 261.904 480.367 272.611 480.367 272.611C486.813 274.488 493.459 275.596 500.165 275.913C501.424 275.949 502.674 275.69 503.815 275.157C504.956 274.624 505.956 273.832 506.737 272.844C507.518 271.855 508.056 270.699 508.31 269.465C508.565 268.232 508.527 266.956 508.201 265.74L505.653 256.15C505.653 256.15 523.784 239.169 530.278 261.024Z" fill="#F4A28C"/>
<path d="M479.99 198.008L477.82 200.272C477.697 200.402 477.608 200.56 477.562 200.732C477.516 200.905 477.514 201.086 477.557 201.26C477.599 201.434 477.684 201.594 477.804 201.726C477.924 201.858 478.075 201.958 478.244 202.017L480.682 202.835L479.99 198.008Z" fill="#F4A28C"/>
<path d="M516.079 220.539C523.139 225.994 533.88 238.038 533.675 260.804L504.458 262.675C504.458 262.675 496.014 237.676 504.836 222.708C505.382 221.772 506.123 220.964 507.008 220.337C507.892 219.71 508.901 219.28 509.965 219.074C511.03 218.869 512.126 218.893 513.18 219.146C514.235 219.398 515.223 219.873 516.079 220.539Z" fill="#282F66"/>
<path opacity="0.36" d="M516.079 220.539C523.139 225.994 533.88 238.038 533.675 260.804L504.458 262.675C504.458 262.675 496.014 237.676 504.836 222.708C505.382 221.772 506.123 220.964 507.008 220.337C507.892 219.71 508.901 219.28 509.965 219.074C511.03 218.869 512.126 218.893 513.18 219.146C514.235 219.398 515.223 219.873 516.079 220.539Z" fill="white"/>
<path d="M228.657 117.54H272.688V110.575H228.657V117.54Z" fill="#C9C9C9"/>
<path d="M228.657 110.544H261.963V103.579H228.657V110.544Z" fill="#E6E6E6"/>
<path opacity="0.58" d="M232.4 101.975C232.4 101.975 244.697 98.6103 247.386 87.1485C247.386 87.1485 228.311 83.2965 227.761 102.981L232.4 101.975Z" fill="#282F66"/>
<path opacity="0.73" d="M230.891 100.748C230.891 100.748 239.476 87.1482 231.913 74.4443C231.913 74.4443 217.414 83.6578 223.861 100.78L230.891 100.748Z" fill="#282F66"/>
<path d="M228.673 100.764C228.673 100.764 224.128 86.4095 210.384 83.6895C210.384 83.6895 207.821 92.9972 219.285 100.796L228.673 100.764Z" fill="#282F66"/>
<path d="M237.59 100.434L235.105 117.508L219.38 117.571L217.068 100.512L237.59 100.434Z" fill="#24285B"/>
</svg>
