<svg width="207" height="156" viewBox="0 0 207 156" fill="none" xmlns="http://www.w3.org/2000/svg">
<path opacity="0.45" d="M104.98 141.3C153.71 141.3 193.214 138.2 193.214 134.377C193.214 130.553 153.71 127.453 104.98 127.453C56.2497 127.453 16.7461 130.553 16.7461 134.377C16.7461 138.2 56.2497 141.3 104.98 141.3Z" fill="#E6E6E6"/>
<path d="M55.921 126.64C55.921 126.64 55.952 128.679 57.5408 129.383C59.1295 130.087 59.0105 131.836 57.3959 131.748C55.7813 131.66 52.6245 128.451 52.6245 128.451L53.8199 125.502L55.921 126.64Z" fill="#282F66"/>
<path d="M49.6802 105.228C49.6802 105.228 59.1763 105.647 58.1413 112.089C57.1063 118.532 52.9146 125.502 52.9146 125.502L56.5681 127.028C56.5681 127.028 63.8131 118.708 64.5221 108.441C65.2311 98.1752 50.6738 100.467 49.6802 105.228Z" fill="#24285B"/>
<path opacity="0.08" d="M49.6802 105.228C49.6802 105.228 59.1763 105.647 58.1413 112.089C57.1063 118.532 52.9146 125.502 52.9146 125.502L56.5681 127.028C56.5681 127.028 63.8131 118.708 64.5221 108.441C65.2311 98.1752 50.6738 100.467 49.6802 105.228Z" fill="black"/>
<path d="M43.1129 66.2643C39.6663 63.5995 34.481 64.9655 33.0371 69.0793C32.5935 70.3595 32.5807 71.7497 33.0009 73.0378C34.6414 78.3003 37.2289 85.4566 46.8854 88.0439C56.542 90.6311 64.6564 92.5664 65.4326 89.1771C66.2089 85.7878 64.0509 81.4774 56.1176 78.8281C50.4717 76.9135 47.4961 69.6485 43.1129 66.2643Z" fill="#282F66"/>
<path opacity="0.08" d="M43.1129 66.2643C39.6663 63.5995 34.481 64.9655 33.0371 69.0793C32.5935 70.3595 32.5807 71.7497 33.0009 73.0378C34.6414 78.3003 37.2289 85.4566 46.8854 88.0439C56.542 90.6311 64.6564 92.5664 65.4326 89.1771C66.2089 85.7878 64.0509 81.4774 56.1176 78.8281C50.4717 76.9135 47.4961 69.6485 43.1129 66.2643Z" fill="black"/>
<path d="M63.5543 127.085C63.5543 127.085 63.5543 129.124 65.1741 129.827C66.7938 130.531 66.6438 132.28 65.024 132.192C63.4042 132.104 60.2578 128.896 60.2578 128.896L61.4274 125.941L63.5543 127.085Z" fill="#282F66"/>
<path d="M163.401 92.3697L147.245 80.4321C147.245 80.4321 142.168 76.8099 141.345 79.9146C140.522 83.0193 146.365 83.5368 146.365 83.5368C146.365 83.5368 156.249 99.3449 161.207 97.4614C166.164 95.5779 163.401 92.3697 163.401 92.3697Z" fill="#F4A28C"/>
<path opacity="0.08" d="M163.401 92.3697L147.245 80.4321C147.245 80.4321 142.168 76.8099 141.345 79.9146C140.522 83.0193 146.365 83.5368 146.365 83.5368C146.365 83.5368 156.249 99.3449 161.207 97.4614C166.164 95.5779 163.401 92.3697 163.401 92.3697Z" fill="black"/>
<path d="M148.093 111.407L162.49 127.08L164.477 126.222L153.614 106.926L148.093 111.407Z" fill="#F4A28C"/>
<path d="M162.226 126.682C162.226 126.682 162.226 128.633 160.932 129.517C159.638 130.402 160.818 132.27 162.65 130.552C163.216 130.029 163.735 129.457 164.203 128.845C164.655 128.295 165.244 127.873 165.911 127.624C166.035 127.567 166.138 127.473 166.208 127.356C166.277 127.238 166.309 127.102 166.299 126.966C166.356 125.88 163.815 125.414 163.815 125.414L162.226 126.682Z" fill="#282F66"/>
<path d="M157.418 97.4249C157.418 97.4249 137.314 97.2748 140.227 109.176C141.019 112.598 142.563 115.801 144.746 118.553C146.929 121.305 149.697 123.537 152.849 125.088L160.094 111.805L156.109 100.25L157.418 97.4249Z" fill="#24285B"/>
<path opacity="0.08" d="M157.418 97.4249C157.418 97.4249 137.314 97.2748 140.227 109.176C141.019 112.598 142.563 115.801 144.746 118.553C146.929 121.305 149.697 123.537 152.849 125.088L160.094 111.805L156.109 100.25L157.418 97.4249Z" fill="black"/>
<path d="M168.741 108.101H166.599V126.579H168.741V108.101Z" fill="#C9C9C9"/>
<path d="M174.77 63.3092C174.77 63.3092 176.742 52.7428 186.228 57.5241C193.219 61.0479 186.388 89.1507 182.315 103.686C181.616 106.173 180.122 108.363 178.062 109.922C176.002 111.481 173.488 112.324 170.905 112.322H157.527C153.434 112.322 152.704 106.49 156.668 105.481L156.901 105.425C159.209 104.907 161.916 104.472 164.379 104.146C166.464 103.878 168.392 102.899 169.84 101.375C171.288 99.8512 172.166 97.875 172.328 95.7792L174.77 63.3092Z" fill="#E6E6E6"/>
<path d="M165.264 53.2765C165.254 54.4603 165.402 55.6401 165.704 56.7849C165.749 56.9181 165.82 57.0411 165.913 57.1467C166.006 57.2524 166.119 57.3387 166.246 57.4007C166.372 57.4627 166.51 57.4992 166.65 57.508C166.791 57.5169 166.931 57.498 167.065 57.4524C167.502 57.3305 167.896 57.0851 168.198 56.7456C168.5 56.4061 168.697 55.9867 168.767 55.5378L169.259 53.6387C169.318 53.2477 169.254 52.848 169.076 52.4949C168.898 52.1417 168.615 51.8525 168.265 51.6673C167.003 50.9014 165.212 51.9829 165.264 53.2765Z" fill="#F4A28C"/>
<path d="M169.575 54.7617L170.175 61.7059L166.325 61.768L167.406 56.816L169.575 54.7617Z" fill="#F4A28C"/>
<path d="M165.321 54.6162L164.803 55.4804C164.773 55.5294 164.756 55.5852 164.753 55.6426C164.751 55.6999 164.762 55.7571 164.788 55.8087C164.813 55.8603 164.851 55.9046 164.898 55.9377C164.945 55.9708 164.999 55.9914 165.057 55.9978L165.879 56.0858L165.321 54.6162Z" fill="#F4A28C"/>
<path opacity="0.31" d="M167.375 56.9556C167.837 56.8671 168.267 56.6542 168.617 56.3398C168.617 56.3398 168.891 57.8405 167.064 58.3734L167.375 56.9556Z" fill="#CE8172"/>
<path d="M144.714 108.101V129.378L146.763 130.087L151.814 108.53L144.714 108.101Z" fill="#F4A28C"/>
<path d="M144.791 128.907C144.791 128.907 143.451 130.33 141.919 130.123C140.387 129.916 139.968 132.074 142.468 132.064C143.245 132.063 144.02 131.997 144.786 131.867C145.486 131.769 146.2 131.856 146.856 132.121C146.986 132.163 147.126 132.164 147.257 132.126C147.388 132.087 147.505 132.009 147.591 131.903C148.362 131.137 146.799 129.083 146.799 129.083L144.791 128.907Z" fill="#282F66"/>
<path d="M169.429 54.7818C169.429 54.7818 169.378 53.9642 169.999 53.9797C170.62 53.9952 170.692 55.175 169.864 55.3509L169.429 54.7818Z" fill="#F4A28C"/>
<path d="M165.698 53.1625C166.375 53.2726 167.066 53.2726 167.742 53.1625C167.742 53.1625 168.177 55.5221 170.051 56.1171C170.051 56.1171 171.826 52.5881 169.647 51.222C167.825 50.0785 166.464 49.0643 164.963 50.4252C164.747 50.6221 164.588 50.8749 164.506 51.1559C164.423 51.4369 164.42 51.7351 164.496 52.0179C164.572 52.3008 164.724 52.5572 164.936 52.7591C165.148 52.961 165.412 53.1006 165.698 53.1625Z" fill="#24285B"/>
<path d="M170.863 52.3138C172.032 52.3138 172.98 51.3663 172.98 50.1974C172.98 49.0286 172.032 48.0811 170.863 48.0811C169.694 48.0811 168.747 49.0286 168.747 50.1974C168.747 51.3663 169.694 52.3138 170.863 52.3138Z" fill="#24285B"/>
<path d="M167.706 54.3833C167.706 54.3833 167.799 53.4364 168.555 53.5864C169.31 53.7365 169.3 54.8387 168.348 55.2733L167.706 54.3833Z" fill="#F4A28C"/>
<path d="M166.055 62.8696L169.817 61.7881C169.817 61.7881 179.862 62.8696 179.759 70.9263C179.681 76.8977 172.71 99.2153 172.71 99.2153H157.418V91.3552C157.452 87.635 156.58 83.9624 154.877 80.6544C152.512 76.1732 151.275 68.3752 166.055 62.8696Z" fill="#282F66"/>
<path d="M163.209 72.4478C163.825 65.3691 173.844 64.4894 175.779 71.325C176.814 74.9471 177.332 80.1734 176.142 87.5264C173.29 105.254 139.135 93.7358 139.135 93.7358V89.5341C139.135 89.5341 159.318 93.3321 164.167 88.1576C167.018 85.1254 162.713 78.176 163.209 72.4478Z" fill="#282F66"/>
<path d="M157.418 95.542L172.71 99.2159C172.71 99.2159 173.451 105.813 168.131 106.331C162.811 106.848 146.509 105.037 152.849 125.088H140.243C140.243 125.088 132.578 103.542 151.312 99.2159C153.584 98.6984 157.392 98.2638 157.429 95.9301L157.418 95.542Z" fill="#24285B"/>
<path d="M89.0102 56.5312C85.9317 58.3923 83.3563 60.9796 81.5096 64.0665C79.6628 67.1535 78.601 70.646 78.417 74.2384C77.7649 85.9846 78.831 98.5845 93.7194 97.1719C108.608 95.7592 89.0102 56.5312 89.0102 56.5312Z" fill="#282F66"/>
<path opacity="0.08" d="M89.0102 56.5312C85.9317 58.3923 83.3563 60.9796 81.5096 64.0665C79.6628 67.1535 78.601 70.646 78.417 74.2384C77.7649 85.9846 78.831 98.5845 93.7194 97.1719C108.608 95.7592 89.0102 56.5312 89.0102 56.5312Z" fill="black"/>
<path d="M98.0405 44.2467C97.8556 45.6204 97.8556 47.0126 98.0405 48.3863C98.0743 48.5467 98.1394 48.6989 98.2322 48.8342C98.3249 48.9694 98.4434 49.085 98.5809 49.1744C98.7183 49.2638 98.8721 49.3252 99.0333 49.3552C99.1946 49.3851 99.3601 49.3829 99.5205 49.3487C100.044 49.2703 100.534 49.0426 100.931 48.693C101.329 48.3433 101.617 47.8865 101.761 47.3772L102.6 45.2402C102.726 44.7971 102.712 44.3256 102.559 43.8909C102.406 43.4561 102.122 43.0796 101.746 42.8133C100.395 41.737 98.1647 42.7409 98.0405 44.2467Z" fill="#F4A28C"/>
<path d="M102.47 45.6123L103.392 53.6897L98.9048 53.8812L100.033 47.9253L102.47 45.6123Z" fill="#F4A28C"/>
<path d="M97.916 45.8096L97.1863 46.7306C97.1444 46.7833 97.1165 46.8458 97.1052 46.9122C97.094 46.9785 97.0997 47.0467 97.1219 47.1103C97.1442 47.1738 97.1821 47.2307 97.2323 47.2756C97.2825 47.3206 97.3432 47.352 97.4088 47.3671L98.3455 47.5844L97.916 45.8096Z" fill="#F4A28C"/>
<path opacity="0.31" d="M99.7324 49.219C100.296 49.1044 100.813 48.8253 101.218 48.417C101.218 48.417 101.088 49.9021 99.396 51.294L99.7324 49.219Z" fill="#CE8172"/>
<path d="M93.921 54.5908C93.921 54.5908 113.167 50.2805 120.06 54.1458C126.953 58.0112 113.426 94.4294 113.426 94.4294L92.1719 93.7567C92.1719 93.7567 73.5781 58.2906 93.921 54.5908Z" fill="#282F66"/>
<path d="M98.2214 128.627C98.2214 128.627 97.2278 130.412 95.4942 130.278C93.7606 130.143 93.0412 131.742 94.5058 132.43C95.9703 133.118 100.266 131.783 100.266 131.783L100.633 128.627H98.2214Z" fill="#282F66"/>
<path d="M113.788 128.235C113.788 128.235 114.492 130.149 116.231 130.279C117.969 130.408 118.43 132.105 116.878 132.56C115.325 133.016 111.263 131.039 111.263 131.039L111.382 127.867L113.788 128.235Z" fill="#282F66"/>
<path opacity="0.08" d="M110.631 57.5244C110.631 57.5244 104.535 61.4415 107.64 70.4555C110.745 79.4695 111.236 85.9066 103.934 83.6505C96.6325 81.3944 97.1656 71.3197 97.1656 71.3197L89.7187 72.4736L89.0098 86.7656L92.1717 93.7563L110.631 92.5973L118.155 90.6775L120.96 81.2496L115.852 65.2758L110.631 57.5244Z" fill="black"/>
<path d="M92.1719 93.7566L97.6108 128.628H101.161C101.161 128.628 97.8695 102.403 103.619 99.2364C109.368 96.0696 110.497 128.628 110.497 128.628L114.269 128.327L114.223 92.375L92.1719 93.7566Z" fill="#24285B"/>
<path d="M114.368 53.0023C114.368 53.0023 126.343 50.9842 126.343 69.8246C126.343 88.665 123.465 105.43 95.8101 88.6288L97.9111 85.4206C97.9111 85.4206 112.815 91.9715 115.998 86.2174C119.18 80.4634 103.562 56.1949 114.368 53.0023Z" fill="#282F66"/>
<path opacity="0.46" d="M114.368 53.0023C114.368 53.0023 126.343 50.9842 126.343 69.8246C126.343 88.665 123.465 105.43 95.8101 88.6288L97.9111 85.4206C97.9111 85.4206 112.815 91.9715 115.998 86.2174C119.18 80.4634 103.562 56.1949 114.368 53.0023Z" fill="white"/>
<path d="M92.4961 69.7577L82.3584 72.3076L86.1748 87.4775L96.3125 84.9276L92.4961 69.7577Z" fill="#FFD200"/>
<path d="M97.9474 85.4199C97.9474 85.4199 92.9587 81.4666 92.1721 84.4885C91.3855 87.5104 96.5657 87.5259 96.5657 87.5259L97.9474 85.4199Z" fill="#F4A28C"/>
<path d="M122.348 36.7389C129.124 36.7389 134.617 32.1681 134.617 26.5296C134.617 20.8912 129.124 16.3203 122.348 16.3203C115.571 16.3203 110.078 20.8912 110.078 26.5296C110.078 32.1681 115.571 36.7389 122.348 36.7389Z" fill="#24285B"/>
<path d="M113.788 31.1914L109.42 38.622L116.614 33.2871L113.788 31.1914Z" fill="#24285B"/>
<path d="M117.514 28.045C118.351 28.045 119.03 27.3662 119.03 26.5288C119.03 25.6915 118.351 25.0127 117.514 25.0127C116.676 25.0127 115.998 25.6915 115.998 26.5288C115.998 27.3662 116.676 28.045 117.514 28.045Z" fill="white"/>
<path d="M122.373 28.045C123.211 28.045 123.889 27.3662 123.889 26.5288C123.889 25.6915 123.211 25.0127 122.373 25.0127C121.536 25.0127 120.857 25.6915 120.857 26.5288C120.857 27.3662 121.536 28.045 122.373 28.045Z" fill="white"/>
<path d="M127.181 28.045C128.018 28.045 128.697 27.3662 128.697 26.5288C128.697 25.6915 128.018 25.0127 127.181 25.0127C126.343 25.0127 125.665 25.6915 125.665 26.5288C125.665 27.3662 126.343 28.045 127.181 28.045Z" fill="white"/>
<path d="M98.5218 44.3654C98.7049 44.4266 98.8915 44.4767 99.0807 44.5155C99.3497 44.5735 99.6116 44.6603 99.8621 44.7742L100.064 44.8622C100.207 44.9243 100.328 45.0271 100.413 45.1578C100.497 45.2885 100.542 45.4413 100.54 45.597C100.54 46.3887 100.788 47.8427 102.703 48.0083C102.703 48.0083 104.649 45.0899 103.091 42.8338C102.633 42.218 102.043 41.7126 101.365 41.3544C100.686 40.9963 99.9355 40.7945 99.1686 40.764C97.0831 40.6915 96.5397 43.6979 98.5218 44.3654Z" fill="#24285B"/>
<path d="M42.3004 126.573H44.4429V108.095H42.3004V126.573Z" fill="#C9C9C9"/>
<path d="M36.2717 63.3092C36.2717 63.3092 34.3 52.7428 24.8401 57.5241C17.8487 61.0479 24.6797 89.1507 28.7524 103.686C29.4522 106.173 30.946 108.363 33.0061 109.922C35.0662 111.481 37.5796 112.324 40.1633 112.322H53.5406C57.6341 112.322 58.3638 106.49 54.3997 105.481L54.1668 105.425C51.8588 104.907 49.1523 104.472 46.6889 104.146C44.6069 103.875 42.6818 102.894 41.2371 101.371C39.7925 99.8471 38.9162 97.8727 38.7557 95.7792L36.2717 63.3092Z" fill="#E6E6E6"/>
<path d="M44.4428 126.578L52.1122 132.627H35.0347L42.2952 126.578H44.4428Z" fill="#C9C9C9"/>
<path d="M43.1955 49.478C43.4699 50.8116 43.5656 52.1759 43.4801 53.5348C43.4327 53.8556 43.2602 54.1446 43.0003 54.3385C42.7404 54.5325 42.4143 54.6156 42.0932 54.5697C41.5722 54.5293 41.0738 54.34 40.6573 54.0244C40.2407 53.7088 39.9237 53.2803 39.7438 52.7897L38.7657 50.7561C38.6121 50.3272 38.5958 49.8611 38.7191 49.4225C38.8425 48.9839 39.0993 48.5946 39.454 48.3085C40.7063 47.1857 42.9523 47.9877 43.1955 49.478Z" fill="#F4A28C"/>
<path d="M38.9417 51.1445L38.626 59.1547L43.0506 59.015L41.5085 53.2454L38.9417 51.1445Z" fill="#F4A28C"/>
<path d="M42.6056 49.6541C41.8646 49.7703 41.1128 49.8015 40.3648 49.7473C40.6208 50.0511 40.7823 50.4232 40.8292 50.8177C40.8761 51.2122 40.8064 51.6118 40.6287 51.9671C40.4631 52.3154 40.1815 52.5952 39.8321 52.7585C39.4827 52.9219 39.0874 52.9586 38.714 52.8623L38.3879 49.7576C38.3241 49.3125 38.3823 48.8583 38.5564 48.4437C38.7305 48.029 39.0139 47.6694 39.3764 47.4032C39.6913 47.1647 40.0215 46.9469 40.3648 46.7512C41.2187 46.2803 42.6107 46.7512 43.3404 46.0216C43.4151 45.9522 43.5064 45.9031 43.6055 45.8791C43.7046 45.855 43.8082 45.8569 43.9064 45.8844C44.0046 45.9119 44.0941 45.9642 44.1662 46.0363C44.2384 46.1083 44.2908 46.1977 44.3185 46.2959C44.5721 47.2325 44.5772 48.7434 43.3559 49.4006C43.1217 49.5263 42.8681 49.612 42.6056 49.6541Z" fill="#24285B"/>
<path d="M40.8825 51.8639C40.8825 51.8639 40.7531 50.9325 40.0597 51.0878C39.3662 51.243 39.5422 52.5936 40.5151 52.6039L40.8825 51.8639Z" fill="#F4A28C"/>
<path d="M43.4338 51.0049L44.2204 51.8587C44.2653 51.9074 44.2972 51.9666 44.3131 52.0309C44.329 52.0952 44.3284 52.1624 44.3114 52.2264C44.2944 52.2904 44.2614 52.3491 44.2157 52.397C44.1699 52.4448 44.1128 52.4804 44.0497 52.5003L43.144 52.7849L43.4338 51.0049Z" fill="#F4A28C"/>
<path opacity="0.31" d="M41.9177 54.4923C41.3443 54.426 40.8037 54.19 40.3652 53.8145C40.3652 53.8145 40.6033 55.2633 42.3731 56.5104L41.9177 54.4923Z" fill="#CE8172"/>
<path d="M38.6263 59.1544L43.0509 59.0146C43.0509 59.0146 52.7644 61.0845 55.1449 73.4153C57.5254 85.7462 50.7151 96.7731 50.7151 96.7731L36.7426 96.8972C36.7426 96.8972 18.2161 61.2397 38.6263 59.1544Z" fill="#282F66"/>
<path d="M36.7427 96.8976C36.7427 96.8976 36.929 104.908 42.3524 105.596C47.7758 106.284 60.1958 102.113 61.7483 108.877C63.3008 115.64 60.1958 126.392 60.1958 126.392L63.9787 127.427C63.9787 127.427 72.4761 111.169 67.4718 103.459C62.4676 95.7488 50.7307 96.732 50.7307 96.732L36.7427 96.8976Z" fill="#24285B"/>
<path opacity="0.08" d="M35.1902 68.0439C35.1902 68.0439 31.6402 77.9635 37.7777 83.3501C43.9153 88.7368 47.4394 89.3836 44.3241 96.897L50.7152 96.7728C50.7152 96.7728 54.0738 90.6669 54.7517 86.341C55.4296 82.0151 35.1902 68.0439 35.1902 68.0439Z" fill="black"/>
<path d="M45.6124 63.1647C42.1658 60.4999 36.9805 61.8659 35.5366 65.9797C35.093 67.2599 35.0803 68.65 35.5004 69.9382C37.1409 75.2006 39.7284 82.357 49.3901 84.9442C59.0518 87.5315 67.1559 89.4667 67.9321 86.0826C68.7084 82.6985 66.5504 78.383 58.6171 75.7336C52.9764 73.8139 49.9956 66.5489 45.6124 63.1647Z" fill="#282F66"/>
<path opacity="0.46" d="M45.6124 63.1647C42.1658 60.4999 36.9805 61.8659 35.5366 65.9797C35.093 67.2599 35.0803 68.65 35.5004 69.9382C37.1409 75.2006 39.7284 82.357 49.3901 84.9442C59.0518 87.5315 67.1559 89.4667 67.9321 86.0826C68.7084 82.6985 66.5504 78.383 58.6171 75.7336C52.9764 73.8139 49.9956 66.5489 45.6124 63.1647Z" fill="white"/>
<path d="M56.9922 74.9889C56.9922 74.9889 59.6677 73.0122 61.7377 74.9889C63.8077 76.9655 59.7091 79.8063 56.9922 74.9889Z" fill="#F4A28C"/>
<path opacity="0.08" d="M164.994 68.4893C164.994 68.4893 157.537 71.1852 160.094 80.2406C162.65 89.296 157.413 90.6776 157.413 90.6776L164.166 97.2802L172.71 99.2155L175.386 90.2067L164.994 68.4893Z" fill="black"/>
<path d="M70.0074 98.0459H66.5298V132.85H70.0074V98.0459Z" fill="#A5A5A5"/>
<path d="M141.966 98.0459H138.488V132.85H141.966V98.0459Z" fill="#A5A5A5"/>
<path d="M145.179 92.5918H63.021V101.756H145.179V92.5918Z" fill="#E6E6E6"/>
<path d="M100.581 46.9533C100.515 46.868 100.471 46.7668 100.456 46.6597C100.441 46.5526 100.453 46.4434 100.493 46.3427C100.633 46.0064 100.907 45.5666 101.357 45.6338C101.808 45.7011 101.906 46.4411 101.59 46.9326C101.533 47.0128 101.457 47.078 101.369 47.1231C101.282 47.1681 101.184 47.1916 101.086 47.1916C100.987 47.1916 100.89 47.1681 100.802 47.1231C100.714 47.078 100.639 47.0128 100.581 46.9326V46.9533Z" fill="#F4A28C"/>
<path d="M163.209 72.4478C163.825 65.3691 173.844 64.4894 175.779 71.325C176.814 74.9471 177.332 80.1734 176.142 87.5264C173.29 105.254 139.135 93.7358 139.135 93.7358V89.5341C139.135 89.5341 159.318 93.3321 164.167 88.1576C167.018 85.1254 162.713 78.176 163.209 72.4478Z" fill="#F4A28C"/>
<path d="M120.981 92.5923L116.557 76.1012L118.704 75.6406L122.875 90.0723L134.949 91.1072V92.5923H120.981Z" fill="#FFD200"/>
<path d="M139.135 89.5549C139.135 89.5549 134.705 87.4023 133.313 89.1254C131.921 90.8485 133.531 93.4358 139.135 93.7566V89.5549Z" fill="#F4A28C"/>
<path d="M140.763 88.9225L138.77 88.7236L138.211 94.3257L140.204 94.5245L140.763 88.9225Z" fill="#282F66"/>
<path d="M166.599 126.578L158.929 132.627H176.007L168.746 126.578H166.599Z" fill="#C9C9C9"/>
<path d="M164.167 63.6196C164.046 63.0614 164.123 62.4784 164.384 61.9706C164.646 61.4627 165.075 61.0616 165.6 60.8357C167.51 59.8888 172.038 58.7659 172.711 62.4605C172.711 62.476 168.503 65.1978 164.167 63.6196Z" fill="#282F66"/>
<path opacity="0.46" d="M164.167 63.6196C164.046 63.0614 164.123 62.4784 164.384 61.9706C164.646 61.4627 165.075 61.0616 165.6 60.8357C167.51 59.8888 172.038 58.7659 172.711 62.4605C172.711 62.476 168.503 65.1978 164.167 63.6196Z" fill="white"/>
</svg>
